<?xml version="1.0" encoding="utf-8"?>
<!-- Generator: Adobe Illustrator 17.1.0, SVG Export Plug-In . SVG Version: 6.00 Build 0)  -->
<!DOCTYPE svg PUBLIC "-//W3C//DTD SVG 1.1//EN" "http://www.w3.org/Graphics/SVG/1.1/DTD/svg11.dtd">
<svg version="1.1" xmlns="http://www.w3.org/2000/svg" xmlns:xlink="http://www.w3.org/1999/xlink" x="0px" y="0px"
	 viewBox="0 0 612 396" enable-background="new 0 0 612 396" xml:space="preserve">
<g id="Layer_2">
</g>
<g id="Слой_1">
	<path fill="#DCD5B9" d="M134.9,160.3c-0.6-1.9-2.2-4.1-3.7-5.4c-1.4-1.3-3-2.4-4.7-3.1c-1.7-0.7-3.5-1.2-5.3-1.3
		c-1.9-0.2-3.9-0.1-5.9,0.1c-0.1,0-0.2,0-0.3,0.1c-0.1,0-0.2,0-0.3,0c-2.1,0.3-4,0.7-5.8,1.3c-1.8,0.6-3.4,1.4-4.9,2.5
		c-1.5,1.1-2.8,2.5-3.8,4.1c-1.1,1.6-2.2,4.1-2.3,6.1c-0.1,2.4-0.3,4.7,0.1,7.6c0.5,3,1.1,5.8,2.1,8.4c1.1,2.6,2.5,4.9,4.3,6.7
		c1.8,1.9,4,3.2,6.5,4.2c2.6,0.9,5.5,1.1,9,0.7c0,0,0,0,0.1,0c0,0,0,0,0.1,0c3.4-0.4,6.3-1.3,8.6-2.8c2.3-1.5,4.1-3.3,5.4-5.5
		c1.3-2.2,2.2-4.7,2.6-7.5c0.4-2.8,0.4-5.7,0.1-8.7C136.3,164.8,135.5,162.5,134.9,160.3z M125.5,179c0,2.6-0.4,4.6-0.9,6.3
		c-0.6,1.6-1.3,2.8-2.2,3.6c-0.7,0.6-1.5,1-2.2,1.2c0,0-0.4,0.1-0.6,0.1c-0.2,0-0.6,0-0.6,0c-0.8,0-1.6-0.2-2.4-0.6
		c-1.1-0.6-2.1-1.6-3-3c-0.9-1.4-1.7-3.4-2.4-5.9c-0.6-2.5-4.1-18.6-0.4-24.9c1-1.6,2-2.7,3.7-3c0,0,0.4,0,0.6-0.1
		c0.2,0,0.6-0.1,0.6-0.1c1.7-0.1,3,0.7,4.3,2.1C125.2,160,125.6,176.4,125.5,179z"/>
	<path fill="#DCD5B9" d="M88.3,159.8c-0.1-3.2-1.3-5.3-3.4-6.4c-2.2-1.1-5-1.4-8.5-0.8c-1.1,0.2-2.2,0.5-3.2,0.9
		c-1.1,0.4-2,1-2.9,1.7c-0.3,0.3-0.4,0.4-0.2,0.4c0.2,0,0.5,0,0.8,0c0.3,0,0.7,0,1.1,0c0.4,0,0.6,0.2,0.6,0.4
		c0.1,0.9,0.2,1.9,0.4,3.2c0.2,1.3,0.4,2.7,0.7,4.1c0.2,1.4,0.5,2.8,0.7,4.2c0.2,1.4,0.5,2.7,0.6,3.6c0.1,0.8,1.2,6.2,1.1,6.3
		c0.2,0.8,0.4,1.7,0.5,2.5c0.1,0.8,0.3,1.6,0.4,2.4c0.2,1.4,0.5,3,0.9,4.7c0.3,1.8,0.7,3.5,1.2,5.2c0.5,1.7,1,3.3,1.6,4.8
		c0.6,1.5,1.3,2.7,2,3.5c0.7,0.9,1.6,1.3,2.5,1.3c0.9,0,1.9-0.5,3.1-1.7c0.3,0.1,0.4,0.4,0.4,0.8c0,0.4-0.2,0.9-0.3,1.3
		c-0.2,0.5-0.4,0.9-0.6,1.2c-0.2,0.4-0.3,0.5-0.4,0.6c-10.9,1.8-16.4,2.8-27.3,4.9c-0.1,0-0.3-0.1-0.6-0.5c-0.3-0.3-0.6-0.7-0.8-1.1
		c-0.3-0.4-0.5-0.8-0.7-1.2c-0.2-0.4-0.1-0.6,0.1-0.7c1.2,0.6,2.2,0.9,3,0.7c0.8-0.2,1.4-0.7,1.8-1.6c0.4-0.8,0.7-1.9,0.9-3.2
		c0.1-1.3,0.2-2.6,0.2-4.1c0-1.4-0.1-2.9-0.3-4.4c-0.2-1.5-0.3-2.9-0.5-4.1c0-0.2-1.4-11.2-1.6-12.3c-0.7-4.9-2.1-7.5-4.3-7.5
		c-0.1,0-0.1-0.1,0.1-0.3c0.1-0.2,0.3-0.5,0.6-0.8c0.3-0.3,0.7-0.6,1.1-0.8c0.5-0.2,1-0.4,1.7-0.3c0.1,0,0.1-0.1-0.1-0.3
		c-0.2-0.2-0.5-0.3-1.1-0.3c-0.4-2.3-0.7-3.4-1.1-5.6c-0.3-1.6-0.9-2.7-1.8-3.3c-0.9-0.6-2-0.8-3.1-0.5c-0.8,0.1-1.4,0.4-2,0.8
		c-0.6,0.4-1.2,0.8-1.8,1.3c-0.3-0.1-0.4-0.4-0.3-0.8c0-0.4,0.1-0.8,0.3-1.3c0.1-0.4,0.3-0.8,0.5-1.2c0.2-0.4,0.3-0.5,0.4-0.6
		c12.7-2.4,19.1-3.5,31.9-5.6c0.9-0.1,1.6-0.4,2.1-0.8c0.5-0.4,0.9-0.6,1-0.7c0.2-0.3,0.3-0.2,0.4,0.1c1.2,3.8,2.8,6.5,4.8,8.1
		c0.1,0.2,0,0.5-0.2,0.9c-0.2,0.5-0.4,0.9-0.7,1.4c-0.3,0.5-0.6,0.9-0.9,1.2C88.8,159.8,88.5,159.9,88.3,159.8z"/>
	<path fill="#DCD5B9" d="M157.3,163.8c0.2,1.5,0.4,3.2,0.6,5c0.2,1.8,0.5,3.6,0.8,5.3c0.3,1.7,0.7,3.3,1.1,4.8
		c0.5,1.5,1,2.7,1.7,3.5c0.6,0.9,1.4,1.3,2.4,1.5c0.9,0.1,2-0.3,3.3-1.3c0.2,0,0.3,0.2,0.2,0.5c0,0.3-0.1,0.7-0.3,1
		c-0.1,0.4-0.3,0.7-0.4,1c-0.1,0.3-8.2,1.3-24.3,3.3c0,0-0.2-0.1-0.4-0.4c-0.2-0.3-0.4-0.6-0.6-0.9c-0.2-0.3-0.4-0.6-0.5-0.9
		c-0.1-0.3-0.1-0.5,0.2-0.6c1.3,0.7,2.4,0.9,3.2,0.6c0.8-0.3,1.5-0.9,1.9-1.9c0.4-0.9,0.7-2.1,0.9-3.6c0.1-1.4,0.2-2.9,0.1-4.5
		c-0.1-1.6-0.2-3.1-0.3-4.6c-0.2-1.5-0.3-2.9-0.5-4.1c-0.3-2.1-1.3-10.9-1.4-11.7c-0.1-0.9-0.2-1.7-0.4-2.6c-0.2-1.1-0.5-1.9-1-2.4
		c-0.5-0.5-1.1-0.8-1.8-1c-0.7-0.1-1.4,0-2.1,0.3c-0.7,0.3-1.5,0.7-2.2,1.2c-0.2-0.1-0.3-0.3-0.2-0.7s0.1-0.7,0.3-1
		c0.1-0.3,0.3-0.6,0.5-0.9c0.2-0.3,0.3-0.4,0.3-0.4c9.5-1.2,14.3-1.7,23.8-2.8c1.9-0.2,3.7-0.3,5.3-0.2c1.6,0,3,0.3,4.2,0.7
		c1.2,0.4,2.1,1,2.9,1.8c0.7,0.8,1.1,1.8,1.3,3.1c0.1,1.3-0.1,2.5-0.7,3.5c-0.6,1-1.4,1.8-2.4,2.5c-1,0.7-2.1,1.3-3.4,1.7
		c-1.3,0.5-2.6,0.8-3.8,1.1c-1.3,0.3-2.5,0.4-3.6,0.5c-1.1,0.1-2,0.1-2.7,0c-0.4,0-0.7-0.2-0.9-0.5c-0.2-0.3-0.4-0.6-0.5-0.9
		c-0.1-0.4-0.2-0.7-0.2-1c0-0.3,0-0.6,0.2-0.7c0.9,0.8,1.8,1.2,2.7,1.2c0.9,0,1.6-0.2,2.2-0.7c0.6-0.5,1.1-1.2,1.4-2.1
		c0.3-0.9,0.4-2,0.2-3.1c-0.2-1.5-0.9-2.7-1.8-3.6c-1-0.9-2.3-1.2-4-1.1c-0.8,0.1-1.5,0.2-2.2,0.4c-0.7,0.2-1.5,0.7-2.2,1.5
		c-0.1,0.1-0.1,0.2,0.2,0.2c0.2,0,0.5,0,0.8,0c0.3,0,0.6,0,0.9,0.1c0.3,0.1,0.4,0.2,0.5,0.4c0,2,0.1,4.2,0.3,6.6
		C156.9,159.6,157.1,161.8,157.3,163.8z"/>
	<path fill="#DCD5B9" d="M246.7,153.5c1.1-3.3,1.6-4.9,2.7-8.1c0.4-1.1,0.6-2.1,0.7-2.9c0.1-0.8-0.3-1.3-0.9-1.3
		c-0.9-0.1-1.7,0.3-2.4,1.1c-0.2-0.2-0.3-0.5-0.3-0.8c0.1-0.3,0.2-0.6,0.3-1c0.2-0.3,0.3-0.6,0.5-0.8c0.2-0.2,0.3-0.3,0.4-0.3
		c4.2-0.2,6.3-0.3,10.5-0.4c0,0,0.2,0.1,0.3,0.3c0.2,0.2,0.4,0.5,0.6,0.8c0.2,0.3,0.3,0.6,0.4,0.9c0.1,0.3,0,0.6-0.2,0.8
		c-0.7-0.6-1.4-0.9-2-0.9c-0.6,0-1.2,0.2-1.8,0.5c-0.6,0.4-1.1,0.9-1.6,1.6c-0.5,0.7-1,1.5-1.4,2.4c-0.4,0.7-0.7,1.5-1,2.2
		c-0.3,0.7-0.9,2.3-0.9,2.3s-2.2,6-2.4,7c1.1,2.4,1.6,3.6,2.7,6c0.2,0.5,0.6,1.2,1,2.1c0.4,0.9,0.9,1.8,1.5,2.9
		c0.6,1,1.2,2.1,1.9,3.2c0.7,1.1,1.3,2,2,2.9c0.7,0.9,1.4,1.6,2.1,2.2c0.7,0.6,1.3,0.9,1.9,0.9c1,0,2-0.3,2.7-1.1
		c0.2,0.2,0.2,0.4,0.2,0.8c-0.1,0.3-0.2,0.7-0.4,1c-0.2,0.3-0.4,0.6-0.6,0.9c-0.2,0.2-0.3,0.4-0.4,0.4c-9.4,0.3-14,0.5-23.4,1
		c0,0-0.1-0.1-0.3-0.4c-0.2-0.3-0.3-0.5-0.5-0.9c-0.2-0.3-0.3-0.7-0.4-1c-0.1-0.3,0-0.5,0.2-0.7c0.4,0.3,0.8,0.6,1.1,0.7
		c0.3,0.2,0.7,0.2,1.2,0.1c0.8-0.2,1.4-0.6,1.6-1.2c0.3-0.6,0.3-1.4,0.2-2.3c-0.1-0.9-0.3-2-0.7-3.1c-0.4-1.2-0.9-2.3-1.3-3.5
		c-0.6-1.5-1.2-3-1.8-4.4c-0.6-1.5-1.3-2.9-2-4.4c-1.2,3.7-1.8,5.6-3,9.3c-0.2,0.6-0.4,1.4-0.7,2.5c-0.3,1-0.5,2.1-0.7,3.1
		c-0.2,1-0.2,2,0,2.8c0.1,0.8,0.5,1.4,1.2,1.6c0.4,0.2,0.8,0.1,1.2-0.1c0.4-0.2,0.8-0.5,1.2-0.9c0.2,0.2,0.3,0.4,0.2,0.7
		c-0.1,0.3-0.2,0.7-0.4,1c-0.2,0.3-0.4,0.6-0.5,0.9c-0.2,0.3-0.3,0.4-0.3,0.4c-4.8,0.3-7.3,0.4-12.1,0.7c-0.4-0.5-0.7-0.9-0.9-1.2
		c-0.2-0.3-0.3-0.6-0.4-1c-0.1-0.3,0-0.6,0.2-0.7c0.4,0.3,0.7,0.6,1.1,0.7c0.3,0.2,0.7,0.2,1.2,0.2c0.8-0.1,1.7-0.4,2.4-1.2
		c0.7-0.7,1.3-1.6,1.9-2.8s1.1-2.5,1.7-3.9c0.5-1.5,1.1-2.9,1.7-4.4c1.5-4.2,2.3-6.2,3.8-10.4c-0.5-1-3.4-7.8-4.2-9.2
		c-0.3-0.6-0.7-1.3-1.3-2c-0.6-0.7-1.2-1.3-1.9-1.8c-0.7-0.5-1.5-0.7-2.3-0.7c-0.8,0-1.7,0.3-2.6,1.1c-0.2-0.2-0.3-0.4-0.2-0.7
		c0.1-0.3,0.2-0.6,0.3-1c0.2-0.3,0.3-0.6,0.5-0.9c0.2-0.2,0.3-0.4,0.3-0.4c8.1-0.5,12.2-0.7,20.4-1.1c0,0,0.2,0.1,0.4,0.3
		c0.2,0.2,0.4,0.5,0.6,0.7c0.2,0.3,0.3,0.6,0.4,0.9c0.1,0.3,0,0.6-0.2,0.8c-0.9-0.6-1.7-0.9-2.3-0.9c-0.5,0-0.9,0.2-1,0.6
		c-0.1,0.4-0.1,0.8,0,1.3c0.1,0.5,0.2,1,0.4,1.4c0.2,0.5,0.4,0.8,0.5,1C244.5,148.8,245.2,150.4,246.7,153.5z"/>
	<path fill="#DCD5B9" d="M307.7,174.9c0.4,0.3,0.7,0.5,1,0.7c0.3,0.2,0.7,0.3,1.3,0.2c2.1-0.1,3.6-1.7,4.3-5
		c0.7-3.3,0.9-13.9,0.9-13.9l0.1-11.3c0,0-0.1-1.7-0.1-2.4c-0.1-1.1-0.3-1.9-0.7-2.5c-0.4-0.6-0.9-1-1.6-1.1c-0.6-0.2-1.4-0.2-2.1,0
		c-0.8,0.2-1.5,0.5-2.3,0.9c-0.1-0.1-0.2-0.3-0.2-0.5c0-0.2,0.1-0.5,0.2-0.8c0.1-0.3,0.3-0.5,0.5-0.8c0.2-0.3,0.4-0.5,0.6-0.7
		c8.9,0,13.3,0,22.2,0.1c1.8,0,3.5,0.1,5,0.3c1.5,0.2,2.8,0.5,3.9,1c1.1,0.5,1.9,1.1,2.5,1.8c0.6,0.8,0.8,1.8,0.7,3
		c-0.1,0.7-0.4,1.4-0.9,2.1c-0.6,0.7-1.3,1.2-2.2,1.7c-0.9,0.5-1.9,0.9-3,1.2c-1.1,0.3-2.4,0.5-3.6,0.5c-0.2,0-0.3,0-0.3,0.2
		c0,0.1,0.1,0.2,0.3,0.2c2.1,0.2,4,0.6,5.7,1.4c1.7,0.8,3.1,1.8,4.3,3c1.2,1.2,2.1,2.6,2.7,4.2c0.6,1.6,0.8,3.4,0.8,5.3
		c-0.1,2.7-0.7,4.9-1.8,6.8c-1.1,1.8-2.6,3.3-4.4,4.5c-1.8,1.1-4,2-6.4,2.4c-2.4,0.5-5.1,0.7-7.9,0.7c-7.3-0.1-11-0.1-18.4-0.1
		c0,0-0.2-0.1-0.3-0.5c-0.2-0.3-0.4-0.6-0.5-1c-0.2-0.3-0.3-0.7-0.4-1C307.4,175.2,307.5,175,307.7,174.9z M326.8,147.9
		c0.1,0.2,1.1,0.3,1.7,0.2c0.6,0,1.2-0.2,1.7-0.4c0.5-0.3,0.9-0.7,1.3-1.3c0.3-0.6,0.6-1.4,0.6-2.4c0.1-1.3-0.2-2.3-0.8-3.1
		c-0.6-0.8-1.7-1.2-3-1.2c-0.5,0-1.1,0-1.7,0.1c-0.6,0.1-1.1,0.4-1.7,0.8c-0.2,0.1-0.2,0.2,0,0.4c0.2,0.1,0.5,0.2,0.8,0.3
		c0.3,0.1,0.7,0.2,1,0.3c0.3,0.1,0.5,0.2,0.5,0.4c-0.1,0.8-0.2,1.8-0.3,2.9C326.8,145.8,326.6,147.6,326.8,147.9z M332.7,167.3
		c0.9-0.2,1.6-0.9,1.9-2c0.3-1.1,0.6-2.5,0.7-4.1c0.1-1-0.1-2.2-0.3-3.6c-0.3-1.4-0.8-2.7-1.5-3.9c-0.7-1.2-1.6-2.1-2.7-2.8
		c-1.1-0.6-2.5-0.7-4.1-0.1c0,3.1-0.1,6.4-0.1,9.9c0,3.5,0,6.8,0,9.9c0,1.5,0.2,2.8,0.6,3.9c0.4,1.1,1.1,1.7,1.9,1.6
		c1.8,0,3.1-0.6,4.1-1.8c0.9-1.2,1.6-2.6,1.9-4.2c0.1-0.4,0.1-0.7,0-0.8c-0.1-0.1-0.3-0.2-0.5-0.3c-0.2-0.1-0.5-0.2-0.8-0.4
		C333.4,168.4,333.1,168,332.7,167.3z"/>
	<path fill="#DCD5B9" d="M368.9,143.1c-0.1,1-0.3,2.2-0.4,3.4c-0.1,1.3-0.2,2.6-0.3,4c1-0.4,2.1-0.6,3.4-0.5c1.3,0,2.9,0.4,4.6,1.1
		c1.2,0.5,1.4,0.8,2.4,0.9c1.1,0.2,2,0.2,2.8,0c0.8-0.1,0.7,0,1.1-0.4c0.4-0.4,0.6-0.9,0.5-1.5c-0.1-0.5,0.1-0.8,0.4-1
		c0.3-0.1,0.6-0.1,0.9,0c0.3,0.1,0.5,0.4,0.6,0.8c0.1,0.4-0.1,0.9-0.6,1.5c-1.1,1.3-1.7,2-3.3,2.7c-1.6,0.7-2.2,1.3-3.7,1.5
		c-1.5,0.2-2.8,0.2-3.9,0c-1.1-0.2-1.8-0.7-1.9-1.4c-0.3-1.2-0.8-1.9-1.6-2.2c-0.7-0.2-1.6,0-1.8,0.3c-0.4,1-0.2,3.3-0.3,4.9
		c-0.1,1.7-0.2,3.3-0.2,4.9c0,1.6-0.1,3.2-0.1,4.7c0,1.5,0,2.9,0,4.2c0,1.9,0.1,3.4,0.4,4.4c0.3,1,0.9,1.5,1.9,1.6
		c1.1,0,2.2-0.3,3.3-1.1c1.2-0.8,2.3-1.9,3.4-3.2c1.1-1.3,2.1-2.8,3.1-4.4c1-1.6,1.8-3.3,2.4-4.9c0.6-1.6,1.1-3.1,1.3-4.5
		c0.2-1.4,0.2-2.5-0.1-3.3c0.1-0.1,0.4-0.1,0.8,0.2c0.4,0.3,0.8,0.6,1.1,1c0.4,0.4,0.7,0.8,0.9,1.2c0.2,0.4,0.3,0.7,0.2,0.9
		c-0.9,1.2-1.6,2.7-2.3,4.6c-0.7,1.9-1.3,3.9-1.7,5.9c-0.5,2.1-0.9,4.1-1.2,6c-0.3,1.9-0.5,3.5-0.5,4.8c0,0.1-0.1,0.2-0.3,0.1
		c-0.9-0.5-1.7-0.7-2.5-0.8c-0.8-0.1-1.7-0.1-2.6-0.2c-10.2-0.5-15.4-0.7-25.6-1c-0.4-0.7-0.7-1.4-1-2c-0.2-0.6-0.2-0.9,0.1-1
		c0.5,0.4,0.9,0.6,1.4,0.8c0.5,0.2,1,0.3,1.4,0.2c0.8-0.1,1.5-0.5,2-1.4c0.6-0.9,1.1-2,1.5-3.3c0.4-1.3,0.7-2.8,0.9-4.3
		c0.2-1.5,0.4-3,0.5-4.3c0.1-1.4,0.2-2.5,0.2-3.5c0-1,0.1-1.8,0.1-1.8l0.3-13.6c0,0-0.3-2.4-0.9-3c-0.6-0.6-1.4-0.9-2.4-0.9
		c-0.6,0-1.2,0.1-1.7,0.2c-0.5,0.2-1.1,0.4-1.6,0.8c-0.2-0.1-0.2-0.4-0.1-0.7c0.1-0.3,0.2-0.7,0.4-1c0.2-0.3,0.4-0.6,0.6-0.9
		c0.2-0.3,0.3-0.4,0.4-0.4c10.6,0.3,15.9,0.5,26.4,1c0.8,0,1.4,0,1.8-0.2c0.4-0.2,0.7-0.3,0.9-0.4c0.1-0.1,0.2-0.1,0.3-0.2
		c0.1,0,0.1,0.1,0.1,0.3c-0.1,1.4,0,2.7,0.3,4c0.3,1.3,0.7,2.4,1.3,3.2c0,0.1,0,0.3-0.2,0.6c-0.2,0.3-0.4,0.6-0.7,0.9
		c-0.3,0.3-0.5,0.5-0.8,0.7c-0.3,0.2-0.5,0.2-0.7,0.1c0.3-1.5,0.1-2.7-0.4-3.6c-0.5-1-1.2-1.7-2.1-2.3c-0.9-0.6-1.9-1-2.9-1.2
		c-1-0.2-2-0.3-2.8-0.3c-0.9,0-1.8,0.1-2.6,0.2c-0.8,0.1-1.6,0.4-2.5,0.8c-0.2,0.1-0.3,0.1-0.3,0.2c0,0,0.1,0.1,0.4,0.1
		C368.3,142.5,368.9,142.7,368.9,143.1z"/>
	<path fill="#DCD5B9" d="M386.9,180c0,0-0.1-0.2-0.3-0.5c-0.2-0.3-0.3-0.6-0.5-1c-0.2-0.4-0.3-0.7-0.3-1c-0.1-0.3,0-0.5,0.3-0.5
		c1.1,0.9,2,1.3,2.9,1.2c0.8-0.1,1.5-0.5,2.1-1.2c0.6-0.7,1.1-1.8,1.5-3.1c0.4-1.3,0.7-2.7,1-4.3c0.2-1.5,0.4-3.1,0.6-4.8
		c0.1-1.7,0.3-3.3,0.4-4.8c0.1-2,0.8-12.2,0.9-14.2c0-1.2-0.2-2-0.6-2.7c-0.4-0.6-0.9-1-1.6-1.2c-0.6-0.2-1.4-0.2-2.2-0.1
		c-0.8,0.2-1.5,0.4-2.2,0.8c-0.2-0.1-0.2-0.4-0.1-0.7c0.1-0.3,0.3-0.6,0.5-0.9c0.2-0.3,0.4-0.5,0.6-0.8c0.2-0.2,0.3-0.3,0.4-0.3
		c8.2,0.5,12.3,0.7,20.5,1.3c0,0,0.1,0.1,0.3,0.4c0.2,0.3,0.3,0.5,0.5,0.8c0.2,0.3,0.3,0.6,0.3,0.9c0,0.3,0,0.5-0.2,0.7
		c-1.2-1.2-2.2-1.5-3-1.1c-0.8,0.4-1.4,1.6-1.5,3.4c0,0.5-0.1,1-0.1,1.3c0,0.4-0.1,0.7-0.1,1.1c0,0.4-1.1,18.1-1.2,20
		c0,2,0,3.6,0,4.8c0,0.7,0,1.4,0,2c0.1,0.6,0.3,1.2,0.6,1.7c0.3,0.5,0.8,0.9,1.4,1.2c0.6,0.3,1.5,0.5,2.5,0.6
		c1.7,0.1,2.9-0.2,3.7-1.2c0.7-1,1.1-2.2,1.3-3.6c0.1-1.1,0.5-2.8,0.7-4.7c0.2-1.9,1.8-20.4,1.9-22.5c0.1-1.8-0.2-3-0.9-3.6
		c-0.8-0.6-1.9-0.3-3.3,0.6c-0.2-0.2-0.2-0.4-0.1-0.7c0.1-0.3,0.2-0.6,0.4-0.9c0.2-0.3,0.4-0.5,0.6-0.8c0.2-0.2,0.3-0.3,0.4-0.3
		c8.2,0.6,12.2,0.9,20.4,1.7c0,0,0.2,0.1,0.3,0.4c0.2,0.3,0.3,0.5,0.5,0.9c0.2,0.3,0.3,0.6,0.3,1s0,0.6-0.2,0.7
		c-0.6-0.5-1.3-0.9-2.1-1.1c-0.8-0.3-1.5-0.3-2.1-0.3c-0.7,0.1-1.2,0.4-1.7,1c-0.5,0.5-0.8,1.4-1,2.5c-0.2,2-0.5,4.9-0.5,4.9
		l-0.9,12.6c0,0-0.2,2.4-0.3,3.6c-0.1,1.2-0.1,2.4-0.1,3.5c0,1.1,0.1,2.2,0.2,3.2c0.2,2.2,0.7,3.9,1.7,4.7c1,0.8,2.5,0.7,4.6-0.2
		c0.8-0.4,1.2-0.3,1.3,0.2c0.1,0.5-0.3,1-1,1.6c-0.6,0.4-1.1,1.1-1.6,2c-0.5,0.9-0.9,2-1.3,3.3c-0.4,1.3-0.6,2.7-0.9,4.3
		c-0.2,1.6-0.2,3.6-0.4,5c-0.1,0.6-0.5,0.9-0.7,0.9c-0.2,0-0.3-0.2-0.2-0.5c0.1-2.4,0-4.5-0.2-6.3c-0.2-1.8-0.7-3.3-1.3-4.5
		c-0.7-1.2-1.6-2.2-2.8-2.9c-1.2-0.7-2.8-1.1-4.8-1.3C406.7,181.2,400.1,180.7,386.9,180z"/>
	<path fill="#DCD5B9" d="M436.5,183.7c0,0-0.1-0.2-0.3-0.5c-0.1-0.3-0.3-0.7-0.4-1c-0.1-0.4-0.2-0.7-0.3-1c0-0.3,0.1-0.5,0.3-0.5
		c0.2,0.3,0.5,0.5,0.8,0.8c0.3,0.2,0.7,0.4,1.1,0.4c1.2,0.1,2.1-0.2,2.9-0.8c0.8-0.7,1.4-1.7,1.9-3.1c0.5-1.4,0.9-3.1,1.3-5.1
		c0.3-2,0.6-4.4,0.9-7c0.2-2.5,1.4-13.9,1.5-15.9c0.1-1.2-0.1-2.1-0.5-2.7c-0.4-0.6-0.9-1-1.5-1.3c-0.6-0.2-1.4-0.3-2.2-0.1
		c-0.8,0.1-1.6,0.4-2.3,0.7c-0.2-0.1-0.2-0.4-0.1-0.7c0.1-0.3,0.3-0.6,0.5-0.9c0.2-0.3,0.4-0.5,0.6-0.8c0.2-0.2,0.4-0.3,0.4-0.3
		c8.6,0.8,12.9,1.2,21.5,2.2c0,0,0.2,0.1,0.3,0.4c0.2,0.3,0.3,0.5,0.5,0.9c0.1,0.3,0.2,0.6,0.3,0.9c0.1,0.3,0,0.5-0.2,0.6
		c-1.5-1.3-2.8-1.7-3.9-1.2c-1.1,0.5-1.8,1.7-2.1,3.5c-0.2,1.3-0.3,2.4-0.4,3.3c-0.1,0.9-0.2,2.1-0.3,3.5c2-1.1,3.9-2.2,5.8-3.3
		c1.9-1.1,3.5-2.2,4.8-3.3c0.7-0.6,1.1-1.2,1.1-1.7c0-0.5-0.1-0.9-0.5-1.2c-0.4-0.3-0.9-0.3-1.5-0.1c-0.6,0.2-1.2,0.4-1.7,0.7
		c-0.2-0.1-0.2-0.3-0.1-0.6c0.1-0.3,0.3-0.6,0.5-0.9c0.2-0.3,0.4-0.6,0.7-0.8c0.2-0.2,0.4-0.3,0.4-0.3c6,0.7,9,1,15,1.8
		c0,0,0.1,0.1,0.3,0.4c0.1,0.3,0.3,0.6,0.4,0.9c0.1,0.3,0.2,0.7,0.2,1c0,0.3-0.1,0.5-0.3,0.5c-0.5-0.5-1.1-0.8-1.6-1
		c-0.5-0.2-1-0.3-1.6-0.2c-0.5,0-1.1,0.2-1.7,0.4c-0.6,0.2-1.2,0.4-1.8,0.7c-2.3,0.9-4.5,1.9-6.7,3.1c-2.2,1.2-4.4,2.4-6.6,3.6
		c3.4,0.2,6,0.9,7.8,2.1c1.8,1.2,3,3,3.8,5.4s1.2,5.2,1.3,8.6c0.1,3.4,0.2,7.4,0.3,11.9c0.1,2.5,0.4,4.5,0.9,5.9
		c0.6,1.4,1.6,2.3,2.9,2.6c1,0.2,1.9,0.2,2.8-0.1c0.9-0.3,1.7-0.8,2.4-1.5c0.2,0,0.3,0.2,0.3,0.5c0,0.3,0,0.6-0.1,1
		c-0.1,0.4-0.2,0.7-0.4,1.1c-0.2,0.4-0.4,0.7-0.7,0.9c-1.7,0.4-3.6,0.6-5.7,0.4c-2.1-0.2-4-0.7-5.9-1.5c-1.9-0.8-3.6-2-5-3.6
		s-2.3-3.6-2.7-6.1c-0.3-1.9-0.5-3.8-0.6-5.8c-0.1-2-0.2-3.9-0.3-5.7c-0.1-1.8-0.2-3.6-0.3-5.2c-0.1-1.6-0.2-3.1-0.4-4.3
		c-0.2-1.2-0.5-2.2-0.8-2.9c-0.4-0.7-0.9-1.1-1.5-1.2c-0.6-0.1-1.2,0-1.7,0.2c-0.5,0.2-1.6,0.7-1.9,1.2c-0.8,1.4-0.5,5.3-0.8,8
		c-0.2,2.7-0.3,5.1-0.3,7.2s0.3,3.9,0.9,5.3c0.5,1.4,1.4,2.2,2.7,2.3c0.3,0,0.8,0,1.3-0.1c0.5-0.1,0.9-0.3,1.3-0.6
		c0.2,0.1,0.2,0.2,0.1,0.5c-0.1,0.3-0.2,0.6-0.4,1c-0.2,0.3-0.4,0.7-0.6,0.9c-0.2,0.3-0.3,0.4-0.4,0.4
		C450.8,185,446,184.5,436.5,183.7z"/>
	<path fill="#DCD5B9" d="M479.5,185.3c0.8,1.1,1.6,1.4,2.4,1.1c0.8-0.3,1.6-1,2.4-2.1c0.8-1.1,1.5-2.5,2.3-4.1
		c0.7-1.7,1.4-3.3,1.9-4.9c0.6-1.6,1-3.1,1.4-4.4c0.4-1.3,0.7-2.2,0.8-2.7c0.1-0.4,0.2-0.8,0.4-1.4c0.2-0.6,3.6-10.2,3.9-11.2
		c0.6-1.7,0.4-3-0.4-3.6c-0.8-0.7-2-0.5-3.6,0.4c-0.2-0.1-0.3-0.3-0.1-0.6c0.1-0.3,0.3-0.6,0.6-1c0.3-0.3,0.5-0.6,0.7-0.9
		s0.4-0.4,0.4-0.4c9.6,1.2,14.3,1.9,23.9,3.3c0,0,0.1,0.2,0.3,0.5c0.2,0.3,0.3,0.7,0.5,1c0.1,0.4,0.2,0.8,0.3,1.1
		c0,0.3-0.1,0.5-0.3,0.6c-0.5-0.5-1-0.9-1.5-1.2c-0.6-0.3-1.1-0.4-1.5-0.4c-0.5,0-0.9,0.3-1.2,0.6c-0.3,0.4-0.4,1-0.4,1.8
		c0,1.2,0.1,2.4,0.2,3.3c0.1,0.9,1.2,15.2,1.3,16.3c0.1,1.1,0.2,2.4,0.3,3.6c0.1,1.3,0.3,2.5,0.5,3.8c0.2,1.3,0.5,2.4,0.8,3.6
		s0.7,2,1.2,2.8c0.4,0.7,1,1.2,1.6,1.4c0.6,0.2,1.3,0,2.2-0.6c0.2,0.1,0.2,0.3,0.1,0.6c-0.1,0.3-0.3,0.6-0.5,0.9
		c-0.2,0.3-0.5,0.6-0.7,0.8c-0.2,0.2-0.4,0.4-0.4,0.4c-8.8-1.4-13.2-2-22.1-3.2c0,0-0.1-0.2-0.3-0.5c-0.1-0.3-0.3-0.6-0.4-1
		c-0.1-0.4-0.2-0.7-0.2-1c0-0.3,0.1-0.5,0.4-0.6c0.2,0.3,0.5,0.6,0.8,0.9c0.3,0.2,0.8,0.4,1.5,0.5c0.7,0.1,1.2-0.1,1.7-0.7
		c0.4-0.6,0.7-1.4,1-2.4c0.2-1,0.4-2.2,0.4-3.5c0-1.3,0.1-2.6,0-4c0-1.4-0.1-2.8-0.2-4.1c-0.1-1.3-0.1-2.6-0.2-3.6
		c0-0.4-0.1-0.9-0.1-1.5c-0.1-0.6-0.2-1.1-0.4-1.6c-0.2-0.5-0.4-1-0.8-1.3c-0.3-0.4-0.8-0.6-1.3-0.7c-0.9-0.1-1.4-0.2-2.3-0.3
		c-0.9-0.1-1.6,0.1-2.2,0.8c-0.6,0.6-1,1.4-1.2,2.1c-0.1,0.4-0.4,1.3-0.9,2.6c-0.4,1.3-0.9,2.8-1.3,4.5c-0.5,1.7-0.9,3.4-1.2,5.1
		c-0.3,1.8-0.5,3.3-0.5,4.5c0,1.3,0.3,2.1,0.9,2.7c0.6,0.5,1.6,0.4,3-0.5c0.2,0.1,0.3,0.3,0.1,0.6c-0.1,0.3-0.3,0.6-0.5,0.9
		c-0.2,0.3-0.4,0.6-0.7,0.9c-0.2,0.3-0.4,0.4-0.4,0.4c-4.7-0.6-7.1-0.9-11.9-1.5c0,0-0.1-0.2-0.3-0.5c-0.2-0.3-0.3-0.6-0.4-1
		c-0.1-0.4-0.2-0.7-0.2-1C479.2,185.6,479.3,185.4,479.5,185.3z M501.3,163.4c-0.1-1.5-0.2-3.1-0.3-4.7c-0.1-1.6-0.2-3.2-0.3-4.7
		c0-0.3-0.1-0.5-0.3-0.7c-0.2-0.2-0.4-0.3-0.7-0.3c-0.2,0-0.5,0-0.7,0.1c-0.2,0.1-0.4,0.3-0.5,0.5c-0.5,1.3-1.1,2.7-1.6,4.3
		c-0.5,1.5-1,3.1-1.5,4.7C497.8,162.9,498.9,163.1,501.3,163.4z"/>
	<path fill="#DCD5B9" d="M549.2,172.4c-1-0.6-1.9-0.6-2.7-0.1c-0.8,0.5-1.6,1.3-2.2,2.3c-0.6,1-1.2,2.2-1.6,3.4
		c-0.4,1.3-0.8,2.4-1,3.3c-0.5,2-1.1,4.1-2,6.1c-0.9,2.1-2,3.9-3.4,5.4c-1.4,1.5-3.1,2.7-5,3.4c-1.9,0.8-4.2,0.8-6.8,0.2
		c-1.3-0.3-2.3-0.8-2.9-1.4c-0.6-0.7-1-1.3-1-1.9c-0.1-0.6,0.2-1.1,0.6-1.4c0.5-0.3,1.2-0.3,2,0.1c0.1,0,0.1,0.1,0,0.4
		c-0.1,0.2-0.2,0.5-0.3,0.8c-0.1,0.3-0.1,0.6,0.1,0.9c0.1,0.3,0.4,0.6,0.8,0.8c0.7,0.3,1.3,0.2,1.8,0c0.5-0.3,0.9-0.7,1.3-1.3
		c0.4-0.6,0.7-1.3,0.9-2.2c0.2-0.9,0.5-1.8,0.7-2.7c0.6-2.4,1.1-4.9,1.7-7.2c0.6-2.4,1.4-4.4,2.5-6.2c1.1-1.8,2.7-3.1,4.7-3.9
		c2-0.8,4.8-1,8.3-0.4c0.1,0,0.2,0,0.2,0c0,0-0.1-0.1-0.2-0.2c-1.1-0.3-2.7-0.6-4.2-1.1c-1.5-0.5-2.8-1.1-4-1.9
		c-1.2-0.7-2.2-1.6-2.9-2.5c-0.7-0.9-1.1-2-1-3.1c0.1-1.4,0.7-2.5,1.6-3.2c0.9-0.7,2-1.2,3.2-1.4c1.2-0.2,2.5-0.3,3.9-0.2
		c1.4,0.1,2.6,0.3,3.7,0.5c10.1,1.7,15.2,2.6,25.3,4.5c0,0,0.1,0.1,0.3,0.4c0.2,0.3,0.3,0.6,0.4,0.9c0.1,0.3,0.2,0.7,0.2,1
		c0,0.3-0.1,0.5-0.3,0.6c-0.7-0.6-1.4-1-2.1-1.3c-0.7-0.3-1.4-0.4-2.1-0.4c-0.7,0.1-1.2,0.3-1.8,0.8c-0.5,0.5-0.9,1.3-1.2,2.3
		c-0.4,1.8-0.5,2.7-0.9,4.5c-0.2,0-0.4,0-0.6,0.2c-0.2,0.2-0.3,0.3-0.2,0.3c0.6,0,1,0,1.4,0.2c0.4,0.2,0.7,0.4,0.9,0.6
		c0.2,0.2,0.4,0.5,0.5,0.6c0.1,0.2,0.1,0.3,0.1,0.3c-0.6-0.1-1.3,0.6-2.1,1.9c-0.8,1.3-1.4,3.3-1.9,5.8c-1,5.1-1.5,9.2-1.5,12.3
		c0,3.1,0.8,5,2.4,5.8c0.6,0.3,1.2,0.4,1.7,0.4c0.5-0.1,1.1-0.3,1.6-0.5c0.2,0.1,0.2,0.3,0.1,0.6c-0.1,0.3-0.3,0.6-0.5,0.9
		c-0.2,0.3-0.5,0.6-0.7,0.9c-0.2,0.3-0.4,0.4-0.4,0.4c-9.5-1.8-14.3-2.7-23.8-4.3c0,0-0.1-0.2-0.2-0.5c-0.1-0.3-0.2-0.7-0.3-1
		c-0.1-0.4-0.1-0.7-0.2-1c0-0.3,0.1-0.5,0.3-0.5c0.4,0.4,0.9,0.8,1.5,1.1c0.6,0.3,1.2,0.4,1.6,0.4c0.8,0.1,1.7-0.3,2.5-1.5
		c0.7-1.1,1.4-2.6,2-4.3c0.6-1.8,1.1-3.7,1.6-5.7c0.5-2,0.9-3.9,1.2-5.6c0.2-1.2,0.5-2.4,0.8-3.8c0.3-1.3,0.5-2.7,0.7-4.1
		c0.2-1.4,0.4-2.7,0.6-4c0.2-1.3,0.2-2.5,0.3-3.7c0-0.2,0.1-0.4,0.4-0.4c0.3-0.1,0.6-0.1,0.9,0c0.3,0,0.6,0,0.8,0
		c0.2,0,0.3-0.1,0.2-0.2c-0.5-0.8-1.1-1.3-1.9-1.6c-0.8-0.3-1.4-0.5-2.1-0.6c-0.8-0.1-1.4-0.1-1.9,0.2c-0.5,0.2-1,0.6-1.4,1
		c-0.4,0.4-0.7,0.9-1,1.5c-0.2,0.6-0.4,1.1-0.5,1.6c-0.3,2.1-0.1,3.7,0.8,4.6c0.8,0.9,2.1,1.1,3.7,0.8c0.1,0.1,0.1,0.3,0,0.6
		c-0.1,0.3-0.3,0.6-0.6,0.9c-0.3,0.3-0.5,0.6-0.8,0.7C549.5,172.4,549.3,172.5,549.2,172.4z"/>
	<path fill="#DCD5B9" d="M102.9,265.2c0,0.1,0,0.2-0.1,0.3c0,0.1-0.1,0.2-0.3,0.2c-0.5,0-1.4-0.1-2.6-0.2c-1.2-0.1-2.4-0.2-3.8-0.2
		c-1.3,0-2.6,0.1-3.8,0.2c-1.2,0.1-2.1,0.2-2.6,0.2c-0.1,0-0.2-0.1-0.3-0.2c0-0.1-0.1-0.2-0.1-0.3c0-0.2,0-0.3,0.1-0.3
		c0.1,0,0.2-0.1,0.3-0.1c0.4,0,0.8-0.1,1.2-0.1c0.4,0,0.8-0.1,1.2-0.1l-2.4-41.3L73.7,265c-0.1,0.2-0.3,0.3-0.5,0.3
		c-0.2,0-0.3-0.1-0.4-0.3l-16.9-38.4c-0.2,2.6-0.4,5.3-0.6,7.9c-0.2,2.6-0.3,5.3-0.3,7.9c0,1.6,0.1,3.4,0.2,5.4c0.1,2,0.3,4,0.7,6.1
		c0.3,2,0.8,4,1.4,5.8c0.6,1.8,1.5,3.4,2.6,4.6c0.4,0,0.8,0.1,1.3,0.1c0.5,0,0.9,0.1,1.3,0.1c0.1,0,0.2,0.1,0.3,0.1
		c0.1,0,0.1,0.1,0.1,0.3c0,0.1,0,0.2-0.1,0.3c0,0.1-0.1,0.2-0.3,0.2c-0.5,0-1.4-0.1-2.6-0.2c-1.2-0.1-2.4-0.2-3.8-0.2
		s-2.6,0.1-3.8,0.2c-1.2,0.1-2.1,0.2-2.6,0.2c-0.1,0-0.2-0.1-0.3-0.2c0-0.1-0.1-0.2-0.1-0.3c0-0.2,0-0.3,0.1-0.3
		c0.1,0,0.2-0.1,0.3-0.1c0.4,0,0.8-0.1,1.2-0.1c0.4,0,0.8-0.1,1.2-0.1c0.5-6.6,0.9-13.2,1.3-19.8c0.4-6.6,0.9-13.2,1.5-19.8l-1.3-3
		c-0.5,0-0.9-0.1-1.4-0.1c-0.4,0-0.9-0.1-1.3-0.1c-0.1,0-0.2-0.1-0.3-0.1c-0.1,0-0.1-0.1-0.1-0.3c0-0.1,0-0.2,0.1-0.3
		c0-0.1,0.1-0.2,0.3-0.2c0.5,0,1.4,0.1,2.5,0.2c1.1,0.1,2.2,0.2,3.3,0.2H62c0.2,0,0.3,0.1,0.4,0.3l14.5,32.7l12.6-32.7
		c0.1-0.2,0.1-0.3,0.2-0.3s0.1,0,0.3,0h3.9c1.3,0,2.5,0,3.6-0.1c1.1-0.1,1.9-0.1,2.5-0.1c0.2,0,0.3,0.1,0.3,0.2
		c0,0.1,0.1,0.2,0.1,0.3c0,0.2,0,0.3-0.1,0.3c-0.1,0-0.2,0.1-0.3,0.1c-0.4,0-0.8,0.1-1.2,0.1c-0.4,0-0.8,0.1-1.2,0.1l2.5,42.5
		c0.4,0,0.8,0.1,1.2,0.1c0.4,0,0.8,0.1,1.2,0.1c0.1,0,0.2,0.1,0.3,0.1C102.8,264.8,102.9,264.9,102.9,265.2z"/>
	<path fill="#DCD5B9" d="M148,265.2c0,0.1,0,0.2-0.1,0.3c0,0.1-0.1,0.2-0.3,0.2c-0.3,0-0.7,0-1.4-0.1c-0.7,0-1.5-0.1-2.3-0.1
		c-0.9,0-1.7-0.1-2.6-0.1c-0.9,0-1.6-0.1-2.3-0.1c-0.6,0-1.4,0-2.3,0.1c-0.9,0-1.7,0.1-2.6,0.1c-0.8,0-1.6,0.1-2.3,0.1
		c-0.7,0-1.2,0.1-1.4,0.1c-0.1,0-0.2-0.1-0.3-0.2c0-0.1-0.1-0.2-0.1-0.3c0-0.2,0-0.3,0.1-0.3c0.1,0,0.2-0.1,0.3-0.1
		c0.4,0,0.8-0.1,1.2-0.1c0.4,0,0.8-0.1,1.2-0.1c0.9-0.9,1.6-1.8,2.2-2.6c0.5-0.8,0.8-2,0.8-3.4c0-1.2-0.2-2.4-0.6-3.5
		c-0.4-1.1-0.9-2.2-1.5-3.3h-1.1c-0.8,0-1.7,0.2-2.5,0.5c-0.8,0.3-1.5,0.8-2.2,1.4c-0.7,0.6-1.3,1.3-1.9,2s-1,1.5-1.3,2.3
		c0,0-0.1,0.1-0.3,0.1c-0.2,0-0.3,0-0.3-0.1c-0.4-0.8-0.9-1.5-1.6-2.2c-0.7-0.7-1.4-1.4-2.3-2c-0.9-0.6-1.8-1.1-2.8-1.4
		c-1-0.4-2-0.5-3.1-0.5c0,0.4,0,0.8-0.1,1.2c0,0.4-0.1,0.8-0.1,1.2c0,2,0.3,4,0.9,5.8c0.6,1.9,1.8,3.4,3.7,4.6
		c0.4,0,0.8,0.1,1.2,0.1s0.8,0.1,1.2,0.1c0.1,0,0.2,0.1,0.3,0.1c0.1,0,0.1,0.1,0.1,0.3c0,0.1,0,0.2-0.1,0.3c0,0.1-0.1,0.2-0.3,0.2
		c-0.3,0-0.7,0-1.3-0.1c-0.6,0-1.3-0.1-2-0.1s-1.5-0.1-2.3-0.1s-1.5-0.1-2.1-0.1c-0.6,0-1.4,0-2.2,0.1c-0.8,0-1.6,0.1-2.4,0.1
		s-1.5,0.1-2.1,0.1c-0.6,0-1.1,0.1-1.3,0.1c-0.1,0-0.2-0.1-0.3-0.2c0-0.1-0.1-0.2-0.1-0.3c0-0.2,0-0.3,0.1-0.3
		c0.1,0,0.2-0.1,0.3-0.1c0.4,0,0.8-0.1,1.2-0.1c0.4,0,0.8-0.1,1.2-0.1v-0.4c0-2.4,0.3-4.7,0.8-7.1c0.5-2.4,1.2-4.7,2-6.9
		c0.8-2.3,1.8-4.5,2.9-6.6c1.1-2.2,2.2-4.3,3.3-6.3l8.9-15.9c0-0.2,0.2-0.3,0.4-0.3c0.2,0,0.3,0.1,0.4,0.4c0.4,2.2,1,4.3,1.8,6.1
		c0.8,1.9,1.7,3.7,2.6,5.4c1,1.7,2.1,3.4,3.2,5.1c1.2,1.7,2.4,3.4,3.6,5.2c1,1.5,2,3,2.9,4.4c0.9,1.4,1.7,2.8,2.4,4.3
		c0.7,1.5,1.2,3,1.6,4.6c0.4,1.6,0.6,3.4,0.6,5.3c0,0.5,0,0.9-0.1,1.3c0,0.4-0.1,0.9-0.1,1.3c0.4,0,0.8,0.1,1.2,0.1
		c0.4,0,0.8,0.1,1.2,0.1c0.1,0,0.2,0.1,0.3,0.1C147.9,264.8,148,264.9,148,265.2z M133.2,250.7c-1-1.6-2-3.2-3.2-4.8
		c-1.2-1.6-2.3-3.2-3.4-4.8c-1.1-1.6-2.1-3.3-3-5c-0.9-1.7-1.6-3.5-2-5.4c-0.7,1.3-1.4,2.9-2.1,4.6c-0.8,1.7-1.5,3.4-2.2,5.2
		c-0.7,1.8-1.3,3.6-1.8,5.3c-0.5,1.8-0.8,3.4-1,4.9H133.2z"/>
	<path fill="#DCD5B9" d="M160.9,264.5c0.4,0,0.8,0.1,1.2,0.1c0.4,0,0.8,0.1,1.2,0.1c0.1,0,0.2,0.1,0.3,0.1c0.1,0,0.1,0.1,0.1,0.3
		c0,0.1,0,0.2-0.1,0.3c0,0.1-0.1,0.2-0.3,0.2c-0.5,0-1.4-0.1-2.6-0.2c-1.2-0.1-2.4-0.2-3.8-0.2c-1.3,0-2.6,0.1-3.8,0.2
		c-1.2,0.1-2.1,0.2-2.6,0.2c-0.1,0-0.2-0.1-0.3-0.2c0-0.1-0.1-0.2-0.1-0.3c0-0.2,0-0.3,0.1-0.3c0.1,0,0.2-0.1,0.3-0.1
		c0.4,0,0.8-0.1,1.2-0.1c0.4,0,0.8-0.1,1.2-0.1v-42.6c-0.4,0-0.8-0.1-1.2-0.1c-0.4,0-0.8-0.1-1.2-0.1c-0.1,0-0.2-0.1-0.3-0.1
		c-0.1,0-0.1-0.1-0.1-0.3c0-0.1,0-0.2,0.1-0.3c0-0.1,0.1-0.2,0.3-0.2c0.5,0,1.4,0.1,2.6,0.2c1.2,0.1,2.5,0.2,3.8,0.2
		c1.3,0,2.6-0.1,3.8-0.2c1.2-0.1,2.1-0.2,2.6-0.2c0.2,0,0.3,0.1,0.3,0.2c0,0.1,0.1,0.2,0.1,0.3c0,0.2,0,0.3-0.1,0.3
		c-0.1,0-0.2,0.1-0.3,0.1c-0.4,0-0.8,0.1-1.2,0.1c-0.4,0-0.8,0.1-1.2,0.1v10.7H181v-10.7c-0.4,0-0.8-0.1-1.2-0.1
		c-0.4,0-0.8-0.1-1.2-0.1c-0.1,0-0.2-0.1-0.3-0.1c-0.1,0-0.1-0.1-0.1-0.3c0-0.1,0-0.2,0.1-0.3c0-0.1,0.1-0.2,0.3-0.2
		c0.5,0,1.4,0.1,2.6,0.2c1.2,0.1,2.4,0.2,3.7,0.2c1.3,0,2.6-0.1,3.8-0.2c1.2-0.1,2.1-0.2,2.6-0.2c0.1,0,0.2,0.1,0.3,0.2
		c0,0.1,0.1,0.2,0.1,0.3c0,0.2,0,0.3-0.1,0.3c-0.1,0-0.2,0.1-0.3,0.1c-0.4,0-0.8,0.1-1.2,0.1c-0.4,0-0.8,0.1-1.2,0.1v42.6
		c0.4,0,0.8,0.1,1.2,0.1c0.4,0,0.8,0.1,1.2,0.1c0.1,0,0.2,0.1,0.3,0.1c0.1,0,0.1,0.1,0.1,0.3c0,0.1,0,0.2-0.1,0.3
		c0,0.1-0.1,0.2-0.3,0.2c-0.5,0-1.4-0.1-2.6-0.2c-1.2-0.1-2.5-0.2-3.8-0.2c-1.3,0-2.5,0.1-3.7,0.2s-2.1,0.2-2.6,0.2
		c-0.2,0-0.3-0.1-0.3-0.2c0-0.1-0.1-0.2-0.1-0.3c0-0.2,0-0.3,0.1-0.3c0.1,0,0.2-0.1,0.3-0.1c0.4,0,0.8-0.1,1.2-0.1
		c0.4,0,0.8-0.1,1.2-0.1v-31h-0.6c-0.8,0-1.7,0.2-2.5,0.5c-0.9,0.3-1.7,0.8-2.4,1.4c-0.8,0.6-1.4,1.3-2.1,2
		c-0.6,0.8-1.1,1.5-1.4,2.3c0,0-0.1,0.1-0.3,0.1c-0.2,0-0.3,0-0.3-0.1c-0.4-0.8-0.9-1.5-1.7-2.2c-0.7-0.7-1.6-1.4-2.5-2
		c-0.9-0.6-2-1.1-3.1-1.4c-1.1-0.4-2.2-0.5-3.2-0.5V264.5z"/>
	<path fill="#DCD5B9" d="M196.3,222.3c-0.5,0-1-0.1-1.4-0.1c-0.4,0-0.8-0.1-1.3-0.1c-0.1,0-0.2-0.1-0.2-0.1c-0.1,0-0.1-0.1-0.2-0.3
		c0-0.1,0-0.2,0.1-0.3c0-0.1,0.1-0.2,0.3-0.2c0.3,0,0.8,0,1.6,0c0.8,0,1.6,0,2.6,0.1c1,0,1.9,0,2.9,0.1s1.8,0,2.6,0
		c1.4,0,2.7,0,3.9-0.1c1.2-0.1,2-0.1,2.6-0.1c0.2,0,0.3,0.1,0.3,0.2c0,0.1,0.1,0.2,0.1,0.3c0,0.2,0,0.3-0.1,0.3
		c-0.1,0-0.2,0.1-0.3,0.1c-0.4,0-0.8,0.1-1.3,0.1s-0.8,0-1.3,0.1l16.6,27.7c0.3-0.5,0.7-1.1,1-1.6c0.3-0.5,0.6-1.1,0.9-1.7
		c0.8-1.5,1.4-3.1,2-4.7c0.5-1.6,1-3.2,1.3-4.7c0.3-1.5,0.6-3,0.7-4.4c0.1-1.4,0.1-2.7,0-3.8c0-0.6-0.2-1.3-0.4-2.1
		c-0.2-0.8-0.6-1.6-1-2.3c-0.5-0.7-1.1-1.3-1.8-1.8c-0.7-0.5-1.6-0.7-2.6-0.7c-0.3,0-0.4-0.1-0.4-0.4c0-0.1,0-0.2,0.1-0.3
		c0-0.1,0.1-0.2,0.3-0.2c0.3,0,0.8,0,1.4,0.1c0.6,0,1.3,0.1,2.1,0.1c0.8,0,1.6,0.1,2.4,0.1c0.8,0,1.6,0.1,2.3,0.1
		c0.7,0,1.5,0,2.5-0.1c0.9,0,1.8-0.1,2.7-0.1c0.9,0,1.7-0.1,2.4-0.1c0.7,0,1.2-0.1,1.5-0.1c0.2,0,0.3,0.1,0.4,0.2
		c0,0.1,0.1,0.2,0.1,0.3c0,0.2,0,0.3-0.1,0.3c-0.1,0-0.2,0.1-0.4,0.1c-0.4,0-0.8,0.1-1.2,0.1c-0.4,0-0.8,0-1.3,0.1
		c-0.9,2-1.9,4.3-3,6.9c-1.1,2.6-2.3,5.3-3.7,8.2s-2.8,5.7-4.3,8.5c-1.6,2.9-3.2,5.5-5,8.1c-1.1,1.6-2.3,3.1-3.6,4.5
		c-1.3,1.4-2.5,2.7-3.7,3.9c-1.2,1.1-2.4,2.1-3.5,2.9c-1.1,0.8-2,1.3-2.7,1.5c-0.1,0-0.4-0.1-0.9-0.5c-0.5-0.4-1.2-0.8-1.9-1.4
		c-0.7-0.5-1.5-1.1-2.4-1.8c-0.8-0.6-1.6-1.3-2.3-1.8c-0.7-0.6-1.3-1.1-1.8-1.5c-0.5-0.4-0.7-0.7-0.7-0.7c0-0.1,0.1-0.3,0.4-0.4
		c0.3-0.1,0.5-0.2,0.6-0.1c1.1,0.5,2.4,1,3.8,1.4c1.4,0.5,2.8,0.8,4.3,0.9c1.4,0.1,2.9,0.1,4.3-0.2c1.4-0.3,2.7-0.8,3.9-1.8
		c0.5-0.3,0.9-0.8,1.4-1.3L196.3,222.3z"/>
	<path fill="#DCD5B9" d="M272.5,265.2c-0.7,0-1.3,0-2,0c-0.7,0-1.3,0.1-2,0.1c-0.3,0-0.7,0.1-1.1,0.1c-0.4,0-0.8,0.1-1.1,0.1
		c-0.3,0-0.5-0.1-0.5-0.4s0.1-0.5,0.4-0.5c0.4-0.1,0.8-0.1,1.2-0.1c0.4,0,0.8,0,1.2-0.1v-7.5c-1.4,0.7-2.7,1.3-3.9,1.8
		c-1.2,0.5-2.6,0.8-4.3,0.8c-2.4,0-4.6-0.3-6.6-1c-2-0.7-3.8-1.7-5.3-2.9s-2.7-2.7-3.6-4.5c-0.9-1.7-1.3-3.7-1.3-5.8
		c0-2.9,0.8-5.4,2.3-7.6c1.5-2.1,3.5-3.9,6-5.4c2.4-1.4,5.1-2.6,8.1-3.4c3-0.8,5.9-1.3,8.7-1.4v-5.7c-0.4,0-0.8-0.1-1.2-0.1
		c-0.4,0-0.8,0-1.2-0.1c-0.3,0-0.4-0.2-0.4-0.5c0-0.3,0.1-0.4,0.3-0.4c0,0,0.1,0,0.1,0c0,0,0.1,0,0.1,0c1,0.1,2.1,0.2,3.1,0.2
		c1,0,2.1,0,3.1,0s2.1,0,3.1,0c1,0,2.1-0.1,3.1-0.2c0,0,0.1,0,0.1,0c0,0,0.1,0,0.1,0c0.2,0,0.3,0.1,0.3,0.4c0,0.3-0.1,0.5-0.4,0.5
		c-0.4,0.1-0.8,0.1-1.2,0.1c-0.4,0-0.8,0-1.2,0.1v5.7c1.9,0.1,3.8,0.4,5.8,0.8c2,0.4,3.9,0.9,5.8,1.6c1.9,0.7,3.6,1.5,5.3,2.5
		c1.7,1,3.1,2.1,4.4,3.4c1.2,1.3,2.2,2.7,2.9,4.3c0.7,1.6,1.1,3.4,1.1,5.3c0,2.1-0.4,4.1-1.3,5.8c-0.8,1.7-2,3.2-3.5,4.5
		c-1.5,1.2-3.3,2.2-5.3,2.9c-2,0.7-4.3,1-6.6,1c-1.7,0-3.2-0.3-4.5-0.8c-1.3-0.5-2.7-1.1-4.1-1.8v7.5c0.4,0,0.8,0.1,1.2,0.1
		c0.4,0,0.8,0,1.2,0.1c0.3,0,0.4,0.2,0.4,0.5s-0.2,0.4-0.5,0.4c-0.4,0-0.8,0-1.1-0.1c-0.4,0-0.7-0.1-1.1-0.1c-0.7,0-1.4-0.1-2-0.1
		C273.8,265.2,273.2,265.2,272.5,265.2z M268.6,228.6c-3,0.1-5.6,0.8-7.8,2.3c-2.2,1.4-3.9,3.2-5.2,5.4c-1.3,2.2-2,4.5-2.3,7.2
		c-0.3,2.6,0.1,5.1,1,7.6c0.3,0.8,0.8,1.6,1.4,2.4c0.6,0.8,1.3,1.4,2.1,2c0.8,0.6,1.7,1.1,2.6,1.4c1,0.4,2,0.5,3.1,0.5
		c1.1,0,2.1-0.2,2.8-0.5c0.7-0.3,1.5-0.9,2.3-1.6V228.6z M276.4,255.1c0.8,0.8,1.6,1.3,2.5,1.6c0.9,0.3,1.9,0.5,3,0.5
		c1.1,0,2.1-0.2,3.1-0.5c1-0.4,1.8-0.8,2.6-1.4c0.8-0.6,1.5-1.3,2.1-2c0.6-0.8,1.1-1.6,1.4-2.4c0.9-2.4,1.2-5,0.9-7.6
		c-0.3-2.6-1.1-5-2.4-7.2c-1.3-2.2-3.1-4-5.4-5.4c-2.2-1.4-4.9-2.2-7.9-2.3V255.1z"/>
	<path fill="#DCD5B9" d="M347.2,265.2c0,0.1,0,0.2-0.1,0.3c0,0.1-0.1,0.2-0.3,0.2c-0.3,0-0.7,0-1.4-0.1s-1.5-0.1-2.3-0.1
		c-0.9,0-1.7-0.1-2.6-0.1c-0.9,0-1.6-0.1-2.3-0.1c-0.6,0-1.4,0-2.3,0.1c-0.9,0-1.7,0.1-2.6,0.1c-0.8,0-1.6,0.1-2.3,0.1
		c-0.7,0-1.2,0.1-1.4,0.1c-0.1,0-0.2-0.1-0.3-0.2c0-0.1-0.1-0.2-0.1-0.3c0-0.2,0-0.3,0.1-0.3c0.1,0,0.2-0.1,0.3-0.1
		c0.4,0,0.8-0.1,1.2-0.1c0.4,0,0.8-0.1,1.2-0.1c0.9-0.9,1.6-1.8,2.2-2.6c0.5-0.8,0.8-2,0.8-3.4c0-1.2-0.2-2.4-0.6-3.5
		c-0.4-1.1-0.9-2.2-1.5-3.3h-1.1c-0.8,0-1.7,0.2-2.5,0.5c-0.8,0.3-1.5,0.8-2.2,1.4c-0.7,0.6-1.3,1.3-1.9,2s-1,1.5-1.3,2.3
		c0,0-0.1,0.1-0.3,0.1c-0.2,0-0.3,0-0.3-0.1c-0.4-0.8-0.9-1.5-1.6-2.2c-0.7-0.7-1.4-1.4-2.3-2c-0.9-0.6-1.8-1.1-2.8-1.4
		c-1-0.4-2-0.5-3.1-0.5c0,0.4,0,0.8-0.1,1.2c0,0.4-0.1,0.8-0.1,1.2c0,2,0.3,4,0.9,5.8c0.6,1.9,1.8,3.4,3.7,4.6
		c0.4,0,0.8,0.1,1.2,0.1c0.4,0,0.8,0.1,1.2,0.1c0.1,0,0.2,0.1,0.3,0.1c0.1,0,0.1,0.1,0.1,0.3c0,0.1,0,0.2-0.1,0.3
		c0,0.1-0.1,0.2-0.3,0.2c-0.3,0-0.7,0-1.3-0.1c-0.6,0-1.3-0.1-2-0.1c-0.8,0-1.5-0.1-2.3-0.1s-1.5-0.1-2.1-0.1c-0.6,0-1.4,0-2.2,0.1
		c-0.8,0-1.6,0.1-2.4,0.1c-0.8,0-1.5,0.1-2.1,0.1c-0.6,0-1.1,0.1-1.3,0.1c-0.1,0-0.2-0.1-0.3-0.2c0-0.1-0.1-0.2-0.1-0.3
		c0-0.2,0-0.3,0.1-0.3c0.1,0,0.2-0.1,0.3-0.1c0.4,0,0.8-0.1,1.2-0.1c0.4,0,0.8-0.1,1.2-0.1v-0.4c0-2.4,0.3-4.7,0.8-7.1
		c0.5-2.4,1.2-4.7,2-6.9c0.8-2.3,1.8-4.5,2.9-6.6c1.1-2.2,2.2-4.3,3.3-6.3l8.9-15.9c0-0.2,0.2-0.3,0.4-0.3c0.2,0,0.3,0.1,0.4,0.4
		c0.4,2.2,1,4.3,1.8,6.1s1.7,3.7,2.6,5.4c1,1.7,2.1,3.4,3.2,5.1c1.2,1.7,2.4,3.4,3.6,5.2c1,1.5,2,3,2.9,4.4c0.9,1.4,1.7,2.8,2.4,4.3
		c0.7,1.5,1.2,3,1.6,4.6c0.4,1.6,0.6,3.4,0.6,5.3c0,0.5,0,0.9-0.1,1.3c0,0.4-0.1,0.9-0.1,1.3c0.4,0,0.8,0.1,1.2,0.1
		c0.4,0,0.8,0.1,1.2,0.1c0.1,0,0.2,0.1,0.3,0.1C347.2,264.8,347.2,264.9,347.2,265.2z M332.4,250.7c-1-1.6-2-3.2-3.2-4.8
		c-1.2-1.6-2.3-3.2-3.4-4.8c-1.1-1.6-2.1-3.3-3-5c-0.9-1.7-1.6-3.5-2-5.4c-0.7,1.3-1.4,2.9-2.1,4.6c-0.8,1.7-1.5,3.4-2.2,5.2
		c-0.7,1.8-1.3,3.6-1.8,5.3c-0.5,1.8-0.8,3.4-1,4.9H332.4z"/>
	<path fill="#DCD5B9" d="M393.7,265.2c0,0.3-0.2,0.4-0.5,0.4c-0.3,0-0.7,0-1.3-0.1c-0.6,0-1.2-0.1-1.9-0.1c-0.7,0-1.4-0.1-2.1-0.1
		c-0.7,0-1.4-0.1-2-0.1c-0.6,0-1.3,0-2,0.1c-0.7,0-1.5,0.1-2.2,0.1c-0.7,0-1.4,0.1-2,0.1c-0.6,0-1,0.1-1.3,0.1
		c-0.3,0-0.5-0.1-0.5-0.4c0-0.3,0.1-0.5,0.4-0.5c0.7-0.1,1.4-0.2,2.2-0.2c-1.1-2.1-2.3-4-3.6-5.9c-1.3-1.9-2.6-3.7-4.1-5.5
		c-1.4-1.8-2.9-3.6-4.4-5.3c-1.5-1.7-3-3.5-4.5-5.3l-3.7,3.1v19l2.4,0.2c0.3,0,0.4,0.2,0.4,0.5c0,0.3-0.1,0.4-0.4,0.4
		c-0.8,0-1.7-0.1-2.7-0.2c-1-0.1-2.2-0.2-3.7-0.2c-1.2,0-2.4,0.1-3.6,0.2s-2.1,0.2-2.6,0.2c-0.4,0-0.6-0.1-0.6-0.4
		c0-0.3,0.2-0.5,0.5-0.5c0.4-0.1,0.8-0.1,1.2-0.1c0.4,0,0.8,0,1.2-0.1v-42.6c-0.4,0-0.8,0-1.2-0.1c-0.4,0-0.8-0.1-1.2-0.1
		c-0.3,0-0.5-0.2-0.5-0.5c0-0.3,0.1-0.4,0.4-0.4c0.3,0,0.7,0,1.2,0.1c0.5,0,1.1,0.1,1.7,0.1c0.6,0,1.2,0.1,1.8,0.1
		c0.6,0,1.2,0.1,1.7,0.1c1.1,0,2.3-0.1,3.6-0.2c1.3-0.1,2.2-0.2,2.8-0.2c0.3,0,0.4,0.1,0.4,0.4c0,0.3-0.1,0.5-0.4,0.5
		c-0.8,0.1-1.6,0.2-2.4,0.2v22.5c1.4-1.2,3-2.5,4.9-4.1s3.6-3.2,5.3-4.9c1.7-1.7,3.2-3.5,4.6-5.3c1.3-1.8,2.3-3.6,2.8-5.4
		c0-0.2,0.1-0.3,0.1-0.5c0-0.1,0-0.3,0-0.5c0-0.7-0.2-1.1-0.5-1.4c-0.3-0.2-0.7-0.4-1-0.4c-0.4-0.1-0.7-0.1-1-0.1
		c-0.3,0-0.5-0.2-0.5-0.5c0-0.3,0.1-0.4,0.3-0.4h0.2c1.2,0.1,2.4,0.2,3.7,0.3c1.2,0,2.4,0.1,3.7,0.1c1.2,0,2.4,0,3.7-0.1
		c1.2,0,2.4-0.1,3.7-0.3h0.2c0.2,0,0.3,0.1,0.3,0.4c0,0.3-0.2,0.5-0.7,0.6c-0.5,0.1-0.8,0.1-1.1,0.1l-18.5,15.2
		c1.8,2,3.6,4.1,5.5,6.3c1.9,2.2,3.7,4.5,5.5,6.8c1.8,2.4,3.5,4.7,5.1,7.2c1.6,2.4,3.1,4.8,4.3,7.1c0.4,0,0.9,0.1,1.3,0.1
		c0.4,0,0.9,0,1.3,0.1C393.5,264.8,393.7,264.9,393.7,265.2z"/>
	<path fill="#DCD5B9" d="M412,264.5v-41.9c-2.4,0.3-4.8,1-7.3,1.9c-2.5,0.9-4.7,2.2-6.5,3.7c0,0.3,0.1,0.5,0.2,0.8
		c0.1,0.3,0.1,0.5,0.1,0.8c0,0.3-0.2,0.4-0.6,0.4c-0.2,0-0.3-0.1-0.4-0.4l-1-5.5c-0.1-0.3-0.2-0.8-0.3-1.4c-0.1-0.6-0.2-1-0.2-1.3
		c0-0.3,0.1-0.5,0.4-0.5h15.5H435c0.3,0,0.4,0.2,0.4,0.5c0,0.3-0.1,0.7-0.2,1.2c-0.1,0.5-0.2,0.9-0.3,1.2c-0.4,1.8-0.8,3.7-1.1,5.8
		c0,0.1-0.1,0.2-0.1,0.3c0,0.1-0.1,0.1-0.3,0.1c-0.1,0-0.2,0-0.3-0.1c-0.1,0-0.2-0.1-0.2-0.3c0-0.3,0-0.6,0.1-0.9s0.1-0.6,0.2-0.8
		c-1.8-1.5-3.9-2.7-6.3-3.6c-2.4-0.9-4.7-1.5-7-1.9v41.8H412z M419.9,264.5c0.4,0,0.8,0.1,1.2,0.1c0.4,0,0.8,0.1,1.2,0.1
		c0.1,0,0.2,0.1,0.3,0.1c0.1,0,0.1,0.1,0.1,0.3c0,0.1,0,0.2-0.1,0.3c0,0.1-0.1,0.2-0.3,0.2c-0.5,0-1.4-0.1-2.6-0.2
		c-1.2-0.1-2.4-0.2-3.7-0.2c-1.3,0-2.6,0.1-3.8,0.2c-1.2,0.1-2.1,0.2-2.6,0.2c-0.1,0-0.2-0.1-0.3-0.2c0-0.1-0.1-0.2-0.1-0.3
		c0-0.2,0-0.3,0.1-0.3c0.1,0,0.2-0.1,0.3-0.1c0.4,0,0.8-0.1,1.2-0.1c0.4,0,0.8-0.1,1.2-0.1H419.9z"/>
	<path fill="#DCD5B9" d="M440.1,222.3c-0.5,0-1-0.1-1.4-0.1c-0.4,0-0.8-0.1-1.3-0.1c-0.1,0-0.2-0.1-0.2-0.1c-0.1,0-0.1-0.1-0.2-0.3
		c0-0.1,0-0.2,0.1-0.3c0-0.1,0.1-0.2,0.3-0.2c0.3,0,0.8,0,1.6,0c0.8,0,1.6,0,2.6,0.1c1,0,1.9,0,2.9,0.1s1.8,0,2.6,0
		c1.4,0,2.7,0,3.9-0.1c1.2-0.1,2-0.1,2.6-0.1c0.2,0,0.3,0.1,0.3,0.2c0,0.1,0.1,0.2,0.1,0.3c0,0.2,0,0.3-0.1,0.3
		c-0.1,0-0.2,0.1-0.3,0.1c-0.4,0-0.8,0.1-1.3,0.1c-0.4,0-0.8,0-1.3,0.1l16.6,27.7c0.3-0.5,0.7-1.1,1-1.6c0.3-0.5,0.6-1.1,0.9-1.7
		c0.8-1.5,1.4-3.1,2-4.7c0.5-1.6,1-3.2,1.3-4.7c0.3-1.5,0.6-3,0.7-4.4c0.1-1.4,0.1-2.7,0-3.8c0-0.6-0.2-1.3-0.4-2.1
		c-0.2-0.8-0.6-1.6-1-2.3c-0.5-0.7-1.1-1.3-1.8-1.8c-0.7-0.5-1.6-0.7-2.6-0.7c-0.3,0-0.4-0.1-0.4-0.4c0-0.1,0-0.2,0.1-0.3
		c0-0.1,0.1-0.2,0.3-0.2c0.3,0,0.8,0,1.4,0.1c0.6,0,1.3,0.1,2.1,0.1c0.8,0,1.6,0.1,2.4,0.1c0.8,0,1.6,0.1,2.3,0.1s1.5,0,2.5-0.1
		c0.9,0,1.8-0.1,2.7-0.1c0.9,0,1.7-0.1,2.4-0.1c0.7,0,1.2-0.1,1.5-0.1c0.2,0,0.3,0.1,0.4,0.2c0,0.1,0.1,0.2,0.1,0.3
		c0,0.2,0,0.3-0.1,0.3c-0.1,0-0.2,0.1-0.4,0.1c-0.4,0-0.8,0.1-1.2,0.1c-0.4,0-0.8,0-1.3,0.1c-0.9,2-1.9,4.3-3,6.9
		c-1.1,2.6-2.3,5.3-3.7,8.2c-1.3,2.8-2.8,5.7-4.3,8.5c-1.6,2.9-3.2,5.5-5,8.1c-1.1,1.6-2.3,3.1-3.6,4.5c-1.3,1.4-2.5,2.7-3.7,3.9
		c-1.2,1.1-2.4,2.1-3.5,2.9c-1.1,0.8-2,1.3-2.7,1.5c-0.1,0-0.4-0.1-0.9-0.5c-0.5-0.4-1.2-0.8-1.9-1.4c-0.7-0.5-1.5-1.1-2.4-1.8
		c-0.8-0.6-1.6-1.3-2.3-1.8c-0.7-0.6-1.3-1.1-1.8-1.5c-0.5-0.4-0.7-0.7-0.7-0.7c0-0.1,0.1-0.3,0.4-0.4c0.3-0.1,0.5-0.2,0.6-0.1
		c1.1,0.5,2.4,1,3.8,1.4c1.4,0.5,2.8,0.8,4.3,0.9c1.4,0.1,2.9,0.1,4.3-0.2c1.4-0.3,2.7-0.8,3.9-1.8c0.5-0.3,0.9-0.8,1.4-1.3
		L440.1,222.3z"/>
	<path fill="#DCD5B9" d="M526.9,237.9c0,2.9-0.8,5.3-2.4,7.4c-1.6,2.1-3.6,3.8-6,5.2c-2.4,1.4-5,2.4-7.7,3.1c-2.8,0.7-5.4,1-7.7,1
		c-0.9,0-1.8,0-2.7-0.1c-0.9-0.1-1.8-0.2-2.7-0.3v10.5c0.4,0,0.8,0,1.2,0c0.4,0,0.8,0.1,1.2,0.1c0.1,0,0.2,0.1,0.3,0.1
		c0.1,0,0.1,0.1,0.1,0.3c0,0.1,0,0.2-0.1,0.3c0,0.1-0.1,0.2-0.3,0.2c-0.5,0-1.4-0.1-2.6-0.2c-1.2-0.1-2.4-0.2-3.8-0.2
		s-2.6,0.1-3.8,0.2s-2.1,0.2-2.6,0.2c-0.1,0-0.2-0.1-0.3-0.2c0-0.1-0.1-0.2-0.1-0.3c0-0.2,0-0.3,0.1-0.3c0.1,0,0.2-0.1,0.3-0.1
		c0.4,0,0.8-0.1,1.2-0.1c0.4,0,0.8-0.1,1.2-0.1v-42.4c-0.5-0.1-1-0.1-1.3-0.2c-0.3,0-0.7-0.1-1.1-0.1c-0.1,0-0.2-0.1-0.3-0.1
		c-0.1,0-0.1-0.1-0.1-0.3c0-0.1,0-0.2,0.1-0.3c0-0.1,0.1-0.2,0.3-0.2c0.5,0,1.4,0.1,2.7,0.2c1.2,0.1,2.5,0.2,3.7,0.2h9.3
		c1.6,0,3.3,0.1,5.1,0.4c1.8,0.3,3.6,0.7,5.3,1.3c1.8,0.6,3.5,1.3,5.1,2.3c1.6,0.9,3,2,4.3,3.2s2.2,2.6,3,4.2
		C526.5,234.3,526.9,236,526.9,237.9z M517.6,237.9c0-2.4-0.5-4.5-1.6-6.4c-1.1-1.9-2.5-3.6-4.2-5c-1.7-1.4-3.6-2.5-5.7-3.2
		c-2.1-0.8-4.3-1.1-6.4-1.1c-0.3,0-0.7,0-1,0c-0.4,0-0.7,0.1-1,0.1v30.7c0.3,0,0.7,0.1,1,0.1c0.4,0,0.7,0,1,0c2.2,0,4.3-0.3,6.5-1
		c2.1-0.7,4-1.7,5.7-3c1.7-1.3,3.1-2.9,4.1-4.8C517.1,242.5,517.6,240.3,517.6,237.9z"/>
	<path fill="#DCD5B9" d="M572.3,265.2c0,0.1,0,0.2-0.1,0.3c0,0.1-0.1,0.2-0.3,0.2c-0.3,0-0.7,0-1.4-0.1s-1.5-0.1-2.3-0.1
		c-0.9,0-1.7-0.1-2.6-0.1c-0.9,0-1.6-0.1-2.3-0.1c-0.6,0-1.4,0-2.3,0.1c-0.9,0-1.7,0.1-2.6,0.1c-0.8,0-1.6,0.1-2.3,0.1
		s-1.2,0.1-1.4,0.1c-0.1,0-0.2-0.1-0.3-0.2c0-0.1-0.1-0.2-0.1-0.3c0-0.2,0-0.3,0.1-0.3c0.1,0,0.2-0.1,0.3-0.1c0.4,0,0.8-0.1,1.2-0.1
		c0.4,0,0.8-0.1,1.2-0.1c0.9-0.9,1.6-1.8,2.2-2.6c0.5-0.8,0.8-2,0.8-3.4c0-1.2-0.2-2.4-0.6-3.5c-0.4-1.1-0.9-2.2-1.5-3.3h-1.1
		c-0.8,0-1.7,0.2-2.5,0.5c-0.8,0.3-1.5,0.8-2.2,1.4c-0.7,0.6-1.3,1.3-1.9,2s-1,1.5-1.3,2.3c0,0-0.1,0.1-0.3,0.1
		c-0.2,0-0.3,0-0.3-0.1c-0.4-0.8-0.9-1.5-1.6-2.2c-0.7-0.7-1.4-1.4-2.3-2c-0.9-0.6-1.8-1.1-2.8-1.4c-1-0.4-2-0.5-3.1-0.5
		c0,0.4,0,0.8-0.1,1.2c0,0.4-0.1,0.8-0.1,1.2c0,2,0.3,4,0.9,5.8c0.6,1.9,1.8,3.4,3.7,4.6c0.4,0,0.8,0.1,1.2,0.1s0.8,0.1,1.2,0.1
		c0.1,0,0.2,0.1,0.3,0.1c0.1,0,0.1,0.1,0.1,0.3c0,0.1,0,0.2-0.1,0.3c0,0.1-0.1,0.2-0.3,0.2c-0.3,0-0.7,0-1.3-0.1
		c-0.6,0-1.3-0.1-2-0.1c-0.8,0-1.5-0.1-2.3-0.1s-1.5-0.1-2.1-0.1c-0.6,0-1.4,0-2.2,0.1c-0.8,0-1.6,0.1-2.4,0.1s-1.5,0.1-2.1,0.1
		c-0.6,0-1.1,0.1-1.3,0.1c-0.1,0-0.2-0.1-0.3-0.2c0-0.1-0.1-0.2-0.1-0.3c0-0.2,0-0.3,0.1-0.3c0.1,0,0.2-0.1,0.3-0.1
		c0.4,0,0.8-0.1,1.2-0.1c0.4,0,0.8-0.1,1.2-0.1v-0.4c0-2.4,0.3-4.7,0.8-7.1c0.5-2.4,1.2-4.7,2-6.9c0.8-2.3,1.8-4.5,2.9-6.6
		c1.1-2.2,2.2-4.3,3.3-6.3l8.9-15.9c0-0.2,0.2-0.3,0.4-0.3c0.2,0,0.3,0.1,0.4,0.4c0.4,2.2,1,4.3,1.8,6.1s1.7,3.7,2.6,5.4
		c1,1.7,2.1,3.4,3.2,5.1c1.2,1.7,2.4,3.4,3.6,5.2c1,1.5,2,3,2.9,4.4c0.9,1.4,1.7,2.8,2.4,4.3c0.7,1.5,1.2,3,1.6,4.6
		c0.4,1.6,0.6,3.4,0.6,5.3c0,0.5,0,0.9-0.1,1.3c0,0.4-0.1,0.9-0.1,1.3c0.4,0,0.8,0.1,1.2,0.1c0.4,0,0.8,0.1,1.2,0.1
		c0.1,0,0.2,0.1,0.3,0.1C572.3,264.8,572.3,264.9,572.3,265.2z M557.5,250.7c-1-1.6-2-3.2-3.2-4.8c-1.2-1.6-2.3-3.2-3.4-4.8
		c-1.1-1.6-2.1-3.3-3-5c-0.9-1.7-1.6-3.5-2-5.4c-0.7,1.3-1.4,2.9-2.1,4.6c-0.8,1.7-1.5,3.4-2.2,5.2c-0.7,1.8-1.3,3.6-1.8,5.3
		c-0.5,1.8-0.8,3.4-1,4.9H557.5z"/>
	<path fill="#DCD5B9" d="M160.4,336.4c-11.4,4.5-23.1,6.4-34.1-1.8c-9.2-6.9-8.1-17.4,2-22.7c4.4-2.3,9.1-2.6,13.8-2.1
		c3.5,0.4,7,1,11.1,1.6c-13.2-8.7-26.8-15.4-40.6-21.7c3.5,0.9,7,1.6,10.4,2.6c15.4,4.8,30,11.8,44.4,19.2
		c11.2,5.7,22.1,12.1,33.6,17.1c16.4,7.1,33.7,10.9,51.4,12c8.6,0.5,17.3,0.1,25.9,0.2c-2.2,0.6-4.5,1.4-7,1.8
		c-15.7,2.7-31.4,2.2-47-1.2c-12.4-2.7-24.4-6.7-36-11.9c-11.3-5.1-22.5-10.2-34.5-13.1c-6.7-1.6-13.5-2.4-20.3-0.6
		c-0.8,0.2-1.6,0.5-2.3,0.8c-7.2,3.4-8.1,10.9-1.9,16c3.7,3.1,8,4.5,12.6,4.6C148.1,337.1,154.3,336.6,160.4,336.4z"/>
	<path fill="#DCD5B9" d="M285.9,349.4c-6.8,6.5-17,5.7-23.4,0.7c-0.8-0.6-1.5-1.8-1.6-2.7c0-0.5,1.3-1.4,2.2-1.6
		c6.7-1.8,13.3-1.4,19.8,1.5c0.5,0.2,1.1,0.5,1.6,0.9C284.9,348.5,285.4,348.9,285.9,349.4z"/>
	<path fill="#DCD5B9" d="M241.6,355c-7.3,2.8-17.9-1.9-21.1-9.4c-0.9-2-0.5-3,1.2-2.7c7.9,1.2,14.9,4.4,19.8,11.7
		C241.6,354.7,241.6,354.9,241.6,355z"/>
	<path fill="#DCD5B9" d="M263.1,355.4c-7.8,4.3-20.4-0.2-22.8-7.9C244.2,344.3,258.8,349.2,263.1,355.4z"/>
	<path fill="#DCD5B9" d="M221.2,353c-6.7,1.1-15.4-5.2-16.8-12.3c-0.3-1.3-0.5-3.1,1.5-2.3c6.7,2.4,12,6.7,15.3,13.7
		c0.1,0.1,0.1,0.3,0.1,0.5C221.3,352.7,221.3,352.9,221.2,353z"/>
	<path fill="#DCD5B9" d="M203.1,347c-6.1-0.7-10.7-3.7-13.4-9.7c-0.5-1.2-0.8-2.6-0.9-4c0-0.4,0.9-1.4,1.3-1.3
		C194.8,333,203.7,342.2,203.1,347z"/>
	<path fill="#DCD5B9" d="M204.9,328.1c6.8,4.4,17.3,2.1,18.8-4C218,319.3,207.9,321.4,204.9,328.1z M213.9,325.1
		c-2.1,0.3-3.9,1.2-5.8,2.9c0-1.3,0.8-2.5,1.7-3.5c1-0.9,2.3-1.5,3.6-1.8c2.6-0.4,5.7,0.3,7,2.7C218,324.7,215.9,324.6,213.9,325.1z
		"/>
	<path fill="#DCD5B9" d="M306.2,331.4c-7.6-4.8-19.5-1.9-24.6,5.9c-1,1.5-0.7,2.3,0.8,2.8c5.9,1.9,11.8,2.1,17.5-0.5
		c3.2-1.4,5.6-3.9,7.1-7.4C306.7,331.8,306.5,331.5,306.2,331.4z M294,334c-2.7,0.6-5.1,1.9-7.6,3.8c0.8-3.2,3.9-5.3,7-6.2
		c3.1-0.7,6.9-0.2,9,2.3C299.4,333.2,296.6,333.2,294,334z"/>
	<path fill="#DCD5B9" d="M259,337.8c8.4,3.8,21.5-2.4,22.6-10.6C273.7,322.9,260.8,328.8,259,337.8z M270,331
		c-2.6,1.1-4.7,2.9-6.4,5.6c-0.2-1.6,0.5-3.3,1.4-4.7c1-1.4,2.4-2.4,3.9-3.2c1.6-0.6,3.2-1.1,4.9-1c1.7,0.1,3.4,0.7,4.5,1.9
		C275.3,329.2,272.5,329.7,270,331z"/>
	<path fill="#DCD5B9" d="M238.7,336.2c7.4,4.6,20.8-0.6,23-9C254.8,321.9,240.5,327.4,238.7,336.2z M253.8,328.7
		c-1.4,0.2-2.8,0.5-4,1.1c-1.3,0.4-2.5,1.2-3.7,2c-1.1,0.8-2.1,1.8-3,3.2c-0.2-1.6,0.6-3.3,1.7-4.6c1.1-1.3,2.6-2.2,4.1-2.9
		c1.6-0.5,3.3-0.9,5-0.7c1.7,0.2,3.4,0.9,4.3,2.3C256.6,328.6,255.2,328.5,253.8,328.7z"/>
	<path fill="#DCD5B9" d="M221,332.4c5.7,4.8,17.8,1.6,20.6-5.5C235.8,322,224.9,324.9,221,332.4z M231.2,328.4
		c-2.3,0.6-4.2,1.8-6.3,3.6c0.3-2.9,2.9-5,5.7-5.9c1.4-0.3,2.9-0.5,4.4-0.1c1.4,0.4,2.8,1.2,3.5,2.4
		C235.7,327.6,233.5,327.7,231.2,328.4z"/>
	<g>
		<path fill="#DCD5B9" d="M462,336.4c11.4,4.5,23.1,6.4,34.1-1.8c9.2-6.9,8.1-17.4-2-22.7c-4.4-2.3-9.1-2.6-13.8-2.1
			c-3.5,0.4-7,1-11.1,1.6c13.2-8.7,26.8-15.4,40.6-21.7c-3.5,0.9-7,1.6-10.4,2.6c-15.4,4.8-30,11.8-44.4,19.2
			c-11.2,5.7-22.1,12.1-33.6,17.1c-16.4,7.1-33.7,10.9-51.4,12c-8.6,0.5-17.3,0.1-25.9,0.2c2.2,0.6,4.5,1.4,7,1.8
			c15.7,2.7,31.4,2.2,47-1.2c12.4-2.7,24.4-6.7,36-11.9c11.3-5.1,22.5-10.2,34.5-13.1c6.7-1.6,13.5-2.4,20.3-0.6
			c0.8,0.2,1.6,0.5,2.3,0.8c7.2,3.4,8.1,10.9,1.9,16c-3.7,3.1-8,4.5-12.6,4.6C474.4,337.1,468.2,336.6,462,336.4z"/>
		<path fill="#DCD5B9" d="M336.5,349.4c6.8,6.5,17,5.7,23.4,0.7c0.8-0.6,1.5-1.8,1.6-2.7c0-0.5-1.3-1.4-2.2-1.6
			c-6.7-1.8-13.3-1.4-19.8,1.5c-0.5,0.2-1.1,0.5-1.6,0.9C337.6,348.5,337.1,348.9,336.5,349.4z"/>
		<path fill="#DCD5B9" d="M380.9,355c7.3,2.8,17.9-1.9,21.1-9.4c0.9-2,0.5-3-1.2-2.7c-7.9,1.2-14.9,4.4-19.8,11.7
			C380.8,354.7,380.9,354.9,380.9,355z"/>
		<path fill="#DCD5B9" d="M359.4,355.4c7.8,4.3,20.4-0.2,22.8-7.9C378.2,344.3,363.7,349.2,359.4,355.4z"/>
		<path fill="#DCD5B9" d="M401.2,353c6.7,1.1,15.4-5.2,16.8-12.3c0.3-1.3,0.5-3.1-1.5-2.3c-6.7,2.4-12,6.7-15.3,13.7
			c-0.1,0.1-0.1,0.3-0.1,0.5C401.1,352.7,401.2,352.9,401.2,353z"/>
		<path fill="#DCD5B9" d="M419.4,347c6.1-0.7,10.7-3.7,13.4-9.7c0.5-1.2,0.8-2.6,0.9-4c0-0.4-0.9-1.4-1.3-1.3
			C427.7,333,418.8,342.2,419.4,347z"/>
		<path fill="#DCD5B9" d="M398.7,324.1c1.6,6.1,12.1,8.3,18.8,4C414.6,321.4,404.5,319.3,398.7,324.1z M408.8,325.3
			c-2.1-0.5-4.1-0.4-6.5,0.3c1.3-2.4,4.4-3.1,7-2.7c1.3,0.4,2.6,0.9,3.6,1.8c1,0.9,1.7,2.2,1.7,3.5
			C412.6,326.5,410.8,325.6,408.8,325.3z"/>
		<path fill="#DCD5B9" d="M340.9,337.3c-5.1-7.8-17-10.7-24.6-5.9c-0.3,0.2-0.6,0.5-0.9,0.8c1.5,3.6,3.9,6,7.1,7.4
			c5.8,2.6,11.6,2.4,17.5,0.5C341.6,339.6,341.9,338.8,340.9,337.3z M328.7,334.1c-2.7-0.8-5.4-0.8-8.5,0c2.1-2.5,5.9-3,9-2.3
			c3.1,0.9,6.2,3,7,6.2C333.8,336,331.4,334.7,328.7,334.1z"/>
		<path fill="#DCD5B9" d="M340.8,327.2c1.2,8.2,14.2,14.4,22.6,10.6C361.6,328.8,348.8,322.9,340.8,327.2z M352.6,331.2
			c-2.5-1.3-5.3-1.8-8.4-1.3c1.1-1.2,2.8-1.8,4.5-1.9c1.7-0.1,3.4,0.3,4.9,1c1.5,0.8,2.9,1.8,3.9,3.2c1,1.4,1.6,3,1.4,4.7
			C357.4,334.1,355.2,332.3,352.6,331.2z"/>
		<path fill="#DCD5B9" d="M360.8,327.2c2.3,8.4,15.7,13.6,23,9C381.9,327.4,367.7,321.9,360.8,327.2z M376.6,331.9
			c-1.1-0.8-2.3-1.6-3.7-2c-1.3-0.6-2.7-0.9-4-1.1c-1.4-0.2-2.8-0.1-4.3,0.4c0.9-1.4,2.6-2.1,4.3-2.3c1.7-0.2,3.4,0.1,5,0.7
			c1.5,0.7,3,1.6,4.1,2.9c1.1,1.3,1.8,2.9,1.7,4.6C378.7,333.8,377.7,332.7,376.6,331.9z"/>
		<path fill="#DCD5B9" d="M380.8,326.9c2.9,7.1,15,10.4,20.6,5.5C397.6,324.9,386.7,322,380.8,326.9z M391.4,328.6
			c-2.2-0.7-4.5-0.8-7.1,0c0.7-1.2,2-2.1,3.5-2.4c1.4-0.4,2.9-0.2,4.4,0.1c2.7,0.9,5.3,3.1,5.6,5.9
			C395.6,330.4,393.7,329.2,391.4,328.6z"/>
	</g>
	<path fill="#DCD5B9" d="M117.4,68.9c-12.8-5.5-25.8-8.1-37.9,1.6c-10,8.1-8.6,20.6,2.7,27.1c4.9,2.8,10.2,3.3,15.4,2.8
		c3.9-0.4,7.8-1.1,12.3-1.7c-14.5,10.2-29.4,17.9-44.6,25.2c3.9-1,7.8-1.8,11.6-3c17-5.5,33.1-13.6,49-22.1
		c12.3-6.6,24.3-14,36.9-19.8c18.1-8.2,37.3-12.4,56.9-13.4c9.6-0.5,19.2,0.1,28.8,0.2c-2.5-0.7-5.1-1.8-7.8-2.3
		c-17.6-3.5-35-3.2-52.3,0.6c-13.7,3-27,7.5-39.8,13.6c-12.4,5.9-24.8,11.8-38.1,15.1c-7.4,1.8-14.9,2.7-22.5,0.4
		c-0.9-0.3-1.8-0.6-2.6-1c-8.1-4.2-9.2-13.1-2.5-19.1c4-3.6,8.8-5.3,13.9-5.3C103.7,67.8,110.6,68.5,117.4,68.9z"/>
	<path fill="#DCD5B9" d="M256.7,55.5c-7.7-7.9-19-7-26.1-1.2c-0.8,0.7-1.6,2.1-1.7,3.2c0,0.5,1.5,1.7,2.5,2
		c7.5,2.2,14.9,1.9,21.9-1.4c0.6-0.3,1.2-0.6,1.7-1C255.6,56.6,256.1,56.1,256.7,55.5z"/>
	<path fill="#DCD5B9" d="M207.3,48.1c-8.2-3.5-19.9,2-23.2,10.9c-0.9,2.4-0.5,3.5,1.4,3.3c8.8-1.3,16.5-5,21.8-13.6
		C207.3,48.5,207.3,48.2,207.3,48.1z"/>
	<path fill="#DCD5B9" d="M231.2,48c-8.7-5.2-22.7-0.1-25.2,9.1C210.5,61,226.5,55.3,231.2,48z"/>
	<path fill="#DCD5B9" d="M184.7,50.1c-7.5-1.5-17,5.9-18.4,14.4c-0.2,1.5-0.5,3.6,1.8,2.8c7.4-2.8,13.2-7.8,16.6-16.1
		c0.1-0.2,0.1-0.4,0.1-0.6C184.8,50.5,184.7,50.3,184.7,50.1z"/>
	<path fill="#DCD5B9" d="M164.6,57.1c-6.8,0.8-11.9,4.2-14.7,11.3c-0.6,1.4-0.8,3.1-0.9,4.7c0,0.5,1.1,1.7,1.4,1.6
		C155.7,73.5,165.4,62.7,164.6,57.1z"/>
	<path fill="#DCD5B9" d="M504.4,68.9c12.8-5.5,25.8-8.1,37.9,1.6c10,8.1,8.6,20.6-2.7,27.1c-4.9,2.8-10.2,3.3-15.4,2.8
		c-3.9-0.4-7.8-1.1-12.3-1.7c14.5,10.2,29.4,17.9,44.6,25.2c-3.9-1-7.8-1.8-11.6-3c-17-5.5-33.1-13.6-49-22.1
		c-12.3-6.6-24.3-14-36.9-19.8c-18.1-8.2-37.3-12.4-56.9-13.4c-9.6-0.5-19.2,0.1-28.8,0.2c2.5-0.7,5.1-1.8,7.8-2.3
		c17.6-3.5,35-3.2,52.3,0.6c13.7,3,27,7.5,39.8,13.6c12.4,5.9,24.8,11.8,38.1,15.1c7.4,1.8,14.9,2.7,22.5,0.4c0.9-0.3,1.8-0.6,2.6-1
		c8.1-4.2,9.2-13.1,2.5-19.1c-4-3.6-8.8-5.3-13.9-5.3C518.1,67.8,511.2,68.5,504.4,68.9z"/>
	<path fill="#DCD5B9" d="M425.4,87.7c-13.4,0.5-26.8,1.3-40.2,2.4c-11.4,1-22.7,1.4-33.9-0.4c-12.4-2-24-6.3-33.9-14.6
		c1.9-2.3,3.6-4.7,5.1-7.4c4.9-9.1,6.4-19,1.9-29.4c-1.4-3.2-3.3-5.9-5.6-8.1c0.6,0.1-6-4.7-7.9-4.3c-1.9-0.5-8.5,4.4-7.9,4.3
		c-2.3,2.1-4.2,4.8-5.6,8.1c-4.5,10.4-3,20.3,1.9,29.4c1.5,2.8,3.2,5.2,5.1,7.4c-10,8.3-21.5,12.6-33.9,14.6
		c-11.2,1.8-22.5,1.4-33.9,0.4c-13.4-1.2-26.8-1.9-40.2-2.4c-5-0.2-10,0.9-15,1.5c0,0.1,0.1,0.3,0.1,0.4c7.6,0.8,15.3,1.5,22.9,2.5
		c14,1.9,28,4.6,42.1,6.1c18.5,2,36.4-0.5,53.2-9.3c4-2.1,7.8-4.6,11.3-7.4c3.5,2.9,7.3,5.3,11.3,7.4c16.8,8.8,34.7,11.3,53.2,9.3
		c14-1.5,28-4.1,42.1-6.1c7.6-1.1,15.3-1.7,22.9-2.5c0-0.1,0.1-0.3,0.1-0.4C435.4,88.6,430.4,87.5,425.4,87.7z M304.6,36.8
		c1.8-3,3.9-4.8,6.3-5.8c2.4,1,4.5,2.8,6.3,5.8c2.8,4.8,3.5,10.1,2.4,15.6c-1.4,6.6-4.6,11.8-8.7,16.3c-4-4.5-7.3-9.7-8.7-16.3
		C301.1,46.8,301.8,41.5,304.6,36.8z"/>
	<path fill="#DCD5B9" d="M365.1,55.5c7.7-7.9,19-7,26.1-1.2c0.8,0.7,1.6,2.1,1.7,3.2c0,0.5-1.5,1.7-2.5,2
		c-7.5,2.2-14.9,1.9-21.9-1.4c-0.6-0.3-1.2-0.6-1.7-1C366.2,56.6,365.7,56.1,365.1,55.5z"/>
	<path fill="#DCD5B9" d="M414.5,48.1c8.2-3.5,19.9,2,23.2,10.9c0.9,2.4,0.5,3.5-1.4,3.3c-8.8-1.3-16.5-5-21.8-13.6
		C414.5,48.5,414.5,48.2,414.5,48.1z"/>
	<path fill="#DCD5B9" d="M390.6,48c8.7-5.2,22.7-0.1,25.2,9.1C411.3,61,395.3,55.3,390.6,48z"/>
	<path fill="#DCD5B9" d="M437.1,50.1c7.5-1.5,17,5.9,18.4,14.4c0.2,1.5,0.5,3.6-1.8,2.8c-7.4-2.8-13.2-7.8-16.6-16.1
		c-0.1-0.2-0.1-0.4-0.1-0.6C437,50.5,437.1,50.3,437.1,50.1z"/>
	<path fill="#DCD5B9" d="M457.2,57.1c6.8,0.8,11.9,4.2,14.7,11.3c0.6,1.4,0.8,3.1,0.9,4.7c0,0.5-1.1,1.7-1.4,1.6
		C466.1,73.5,456.4,62.7,457.2,57.1z"/>
	<path fill="#DCD5B9" d="M448.9,89c5.1,6.7,17.3,5.8,21.8-1.4C465.6,81.6,454.3,82.2,448.9,89z M465,89.8c-1.1,1-2.4,1.5-3.8,1.8
		c-2.7,0.4-6-0.5-7.3-3c2.5,0.8,4.7,1,6.8,0.5c2.2-0.3,4.1-1.2,6.1-2.9C466.9,87.6,466.1,88.9,465,89.8z"/>
	<path fill="#DCD5B9" d="M369.3,81.9c8.8,5.1,23.2-2.2,25.4-13C385.5,64.4,370.8,72,369.3,81.9z M383.4,79.2
		c-3.1,1.3-7.1,1.5-9.8-0.7c3.3,0.2,6.1-0.3,8.7-1.6c2.7-1.1,4.9-2.9,7.2-5.4C389.2,74.9,386.4,77.7,383.4,79.2z"/>
	<path fill="#DCD5B9" d="M368.8,66.6c-6.5-2.2-13.1-2.3-19.5,0.9c-3.6,1.8-6.3,4.7-8.1,9c0.4,0.4,0.6,0.7,1,0.9
		c8.3,5.6,21.7,1.9,27.5-7.5C370.8,68,370.5,67.2,368.8,66.6z M356.3,76.6c-3.1,1.3-7.1,1.5-9.8-0.7c3.3,0.2,6.1-0.3,8.7-1.6
		c2.7-1.1,4.9-2.9,7.2-5.4C362.1,72.4,359.3,75.1,356.3,76.6z"/>
	<path fill="#DCD5B9" d="M391.5,81.6c7.6,6.2,23.6-0.6,25.9-11.1C409.2,65.2,394.2,71.6,391.5,81.6z M409.5,77.5
		c-1.1,1.4-2.6,2.4-4.2,3.2c-1.7,0.6-3.4,1-5.2,0.9c-1.8-0.2-3.5-0.8-4.7-2.1c3.3,0.6,6.2,0.1,8.9-1.1c2.7-1.1,5.1-2.9,6.8-5.7
		C411.3,74.3,410.6,76.1,409.5,77.5z"/>
	<path fill="#DCD5B9" d="M413.8,81.6c6.4,5.8,18.5,2.1,23.1-6.9C430.7,69,417.2,73.1,413.8,81.6z M431.1,78.8
		c-1.2,1.3-2.7,2.2-4.4,2.9c-1.7,0.5-3.5,0.8-5.2,0.6c-1.7-0.3-3.5-1.1-4.5-2.5c1.6,0.6,3.1,0.7,4.5,0.6c1.5-0.1,2.9-0.4,4.3-1
		c1.4-0.4,2.7-1.2,3.9-2c1.2-0.8,2.3-1.9,3.2-3.3C433.1,75.8,432.3,77.5,431.1,78.8z"/>
	<path fill="#DCD5B9" d="M433.7,84.6c6.3,5.6,17.6,2.9,21.1-5C447.3,74.5,435.6,77.4,433.7,84.6z M445,85.9c-1.5,0.3-3.1,0.4-4.6,0
		c-1.5-0.4-2.9-1.3-3.6-2.7c2.7,1,5.1,0.9,7.5,0.2c2.4-0.5,4.5-1.8,6.8-3.6C450.7,82.8,447.9,85,445,85.9z"/>
	<path fill="#DCD5B9" d="M151.1,87.6c4.5,7.2,16.7,8.1,21.8,1.4C167.6,82.2,156.2,81.6,151.1,87.6z M161.4,91.7
		c-1.4-0.3-2.7-0.8-3.8-1.8c-1.1-0.9-1.8-2.2-1.9-3.6c2,1.7,3.9,2.6,6.1,2.9c2.2,0.5,4.3,0.3,6.8-0.5
		C167.4,91.2,164.2,92.1,161.4,91.7z"/>
	<path fill="#DCD5B9" d="M227.1,68.9c2.2,10.8,16.7,18.1,25.4,13C251,72,236.3,64.4,227.1,68.9z M239.3,79.2c-3-1.5-5.8-4.3-6.1-7.7
		c2.2,2.4,4.4,4.3,7.2,5.4c2.6,1.3,5.4,1.8,8.7,1.6C246.4,80.8,242.4,80.5,239.3,79.2z"/>
	<path fill="#DCD5B9" d="M272.6,67.5c-6.5-3.2-13-3.1-19.5-0.9c-1.7,0.6-2,1.4-0.9,3.3c5.9,9.4,19.2,13.1,27.5,7.5
		c0.3-0.2,0.6-0.6,1-0.9C278.9,72.2,276.2,69.2,272.6,67.5z M266.4,76.7c-3-1.5-5.8-4.3-6.1-7.7c2.2,2.4,4.4,4.3,7.2,5.4
		c2.6,1.3,5.4,1.8,8.7,1.6C273.5,78.2,269.5,78,266.4,76.7z"/>
	<path fill="#DCD5B9" d="M204.5,70.5c2.3,10.5,18.3,17.3,25.9,11.1C227.6,71.6,212.6,65.2,204.5,70.5z M222.5,81.6
		c-1.8,0.2-3.5-0.3-5.2-0.9c-1.6-0.8-3.1-1.8-4.2-3.2c-1.1-1.4-1.8-3.1-1.6-4.9c1.8,2.8,4.1,4.6,6.8,5.7c2.7,1.3,5.6,1.7,8.9,1.1
		C226.1,80.8,224.3,81.4,222.5,81.6z"/>
	<path fill="#DCD5B9" d="M184.9,74.6c4.6,9.1,16.7,12.7,23.1,6.9C204.6,73.1,191.1,69,184.9,74.6z M195.9,81.8
		c-1.6-0.7-3.2-1.6-4.4-2.9c-1.2-1.3-2-3-1.9-4.8c0.9,1.4,2,2.5,3.2,3.3c1.2,0.8,2.5,1.6,3.9,2c1.4,0.6,2.8,0.8,4.3,1
		c1.5,0.1,3,0,4.5-0.6c-1,1.5-2.7,2.3-4.5,2.5C199.4,82.7,197.6,82.3,195.9,81.8z"/>
	<path fill="#DCD5B9" d="M167.1,79.6c3.5,8,14.8,10.6,21.1,5C186.3,77.4,174.5,74.5,167.1,79.6z M182.2,85.9c-1.5,0.4-3.1,0.3-4.6,0
		c-2.9-0.9-5.7-3.1-6.1-6.1c2.3,1.8,4.3,3.1,6.8,3.6c2.4,0.7,4.8,0.7,7.5-0.2C185.1,84.6,183.7,85.5,182.2,85.9z"/>
	<path fill="#DCD5B9" d="M217.4,151.7c-0.5-1.9-2.1-4.1-3.5-5.5c-1.4-1.4-2.9-2.5-4.6-3.2c-1.7-0.8-3.4-1.3-5.3-1.5
		c-1.9-0.2-3.8-0.3-5.9-0.1c-0.1,0-0.2,0-0.3,0c-0.1,0-0.2,0-0.3,0c-2.1,0.2-4,0.6-5.8,1.1c-1.8,0.5-3.5,1.3-5,2.4
		c-1.5,1-2.8,2.4-4,4c-1.1,1.6-2.3,4.1-2.5,6c-0.2,2.3-0.5,4.7-0.1,7.6c0.4,3,0.9,5.8,1.9,8.5c1,2.6,2.3,4.9,4.1,6.8
		c1.7,1.9,3.9,3.4,6.4,4.3c2.5,1,5.5,1.3,8.9,1c0,0,0,0,0.1,0c0,0,0,0,0.1,0c3.5-0.3,6.3-1.1,8.6-2.5c2.3-1.4,4.2-3.2,5.5-5.4
		c1.4-2.2,2.3-4.7,2.8-7.4c0.5-2.8,0.5-5.7,0.4-8.7C218.7,156.2,218,154,217.4,151.7z M207.5,170.1c-0.1,2.6-0.5,4.6-1.1,6.2
		c-0.6,1.6-1.4,2.8-2.3,3.5c-0.8,0.6-1.5,0.9-2.2,1.1c0,0-0.4,0.1-0.6,0.1c-0.2,0-0.6,0-0.6,0c-0.8,0-1.6-0.2-2.4-0.7
		c-1-0.6-2-1.6-2.9-3.1c-0.9-1.5-1.6-3.4-2.2-5.9c-0.6-2.5-3.5-18.7,0.4-24.9c1-1.6,2.1-2.6,3.8-2.9c0,0,0.4,0,0.6,0
		c0.2,0,0.6-0.1,0.6-0.1c1.7,0,3,0.8,4.3,2.2C207.8,151.1,207.7,167.5,207.5,170.1z"/>
	<path fill="#DCD5B9" d="M304.2,148.2c-0.4-1.9-1.9-4.2-3.2-5.7c-1.3-1.5-2.8-2.6-4.4-3.4c-1.6-0.8-3.4-1.4-5.2-1.7
		c-1.9-0.3-3.8-0.4-5.9-0.4c-0.1,0-0.2,0-0.3,0c-0.1,0-0.2,0-0.3,0c-2.1,0.1-4,0.4-5.9,0.8c-1.8,0.5-3.5,1.2-5.1,2.1
		c-1.6,1-2.9,2.2-4.2,3.8c-1.2,1.6-2.5,4-2.8,5.9c-0.3,2.3-0.7,4.7-0.5,7.6c0.3,3,0.6,5.9,1.5,8.5c0.8,2.7,2.1,5,3.7,7
		c1.6,2,3.7,3.5,6.2,4.6c2.5,1.1,5.4,1.6,8.9,1.4c0,0,0,0,0.1,0c0,0,0,0,0.1,0c3.5-0.1,6.4-0.8,8.8-2.1c2.4-1.3,4.3-3,5.8-5.1
		c1.5-2.1,2.5-4.6,3.2-7.3c0.6-2.7,0.8-5.6,0.8-8.6C305.3,152.8,304.7,150.5,304.2,148.2z M293.5,166.1c-0.2,2.5-0.7,4.6-1.4,6.2
		c-0.7,1.6-1.5,2.7-2.5,3.4c-0.8,0.6-1.5,0.9-2.3,1c0,0-0.4,0-0.6,0.1c-0.2,0-0.6,0-0.6,0c-0.8-0.1-1.5-0.3-2.4-0.8
		c-1-0.6-1.9-1.7-2.8-3.2c-0.8-1.5-1.5-3.5-1.9-6c-0.4-2.5-2.6-18.8,1.6-24.8c1.1-1.5,2.2-2.5,4-2.7c0,0,0.4,0,0.6,0
		c0.2,0,0.6,0,0.6,0c1.7,0,3,0.9,4.2,2.4C294.6,147.1,293.7,163.6,293.5,166.1z"/>
</g>
</svg>
